<mxfile host="app.diagrams.net" agent="Mozilla/5.0 (Windows NT 10.0; Win64; x64) AppleWebKit/537.36 (KHTML, like Gecko) Chrome/128.0.0.0 Safari/537.36" version="24.7.10">
  <diagram name="Página-1" id="2_gUlWq3PLWi-Xzuuxim">
    <mxGraphModel dx="588" dy="336" grid="1" gridSize="10" guides="1" tooltips="1" connect="1" arrows="1" fold="1" page="1" pageScale="1" pageWidth="1240" pageHeight="1600" math="0" shadow="0">
      <root>
        <mxCell id="0" />
        <mxCell id="1" parent="0" />
        <mxCell id="s3zXmxbvex1dd2ZhF0mQ-184" value="" style="endArrow=none;html=1;rounded=0;exitX=0.982;exitY=0.675;exitDx=0;exitDy=0;exitPerimeter=0;" edge="1" parent="1">
          <mxGeometry relative="1" as="geometry">
            <mxPoint x="148.84000000000003" y="447.5" as="sourcePoint" />
            <mxPoint x="201" y="476" as="targetPoint" />
            <Array as="points">
              <mxPoint x="181" y="476" />
            </Array>
          </mxGeometry>
        </mxCell>
        <mxCell id="s3zXmxbvex1dd2ZhF0mQ-186" value="" style="endArrow=none;html=1;rounded=0;exitX=0.937;exitY=0.953;exitDx=0;exitDy=0;exitPerimeter=0;" edge="1" parent="1">
          <mxGeometry relative="1" as="geometry">
            <mxPoint x="151.43999999999994" y="444.18000000000006" as="sourcePoint" />
            <mxPoint x="186" y="501" as="targetPoint" />
            <Array as="points">
              <mxPoint x="170" y="501" />
            </Array>
          </mxGeometry>
        </mxCell>
        <mxCell id="s3zXmxbvex1dd2ZhF0mQ-188" value="" style="endArrow=none;html=1;rounded=0;exitX=0.877;exitY=0.985;exitDx=0;exitDy=0;exitPerimeter=0;" edge="1" parent="1">
          <mxGeometry relative="1" as="geometry">
            <mxPoint x="148.24" y="445.1" as="sourcePoint" />
            <mxPoint x="170" y="527" as="targetPoint" />
            <Array as="points">
              <mxPoint x="154" y="527" />
            </Array>
          </mxGeometry>
        </mxCell>
        <mxCell id="s3zXmxbvex1dd2ZhF0mQ-169" value="" style="endArrow=none;html=1;rounded=0;exitX=0.75;exitY=1;exitDx=0;exitDy=0;" edge="1" parent="1">
          <mxGeometry relative="1" as="geometry">
            <mxPoint x="483.0000000000001" y="432" as="sourcePoint" />
            <mxPoint x="503" y="482" as="targetPoint" />
            <Array as="points">
              <mxPoint x="483" y="482" />
            </Array>
          </mxGeometry>
        </mxCell>
        <mxCell id="s3zXmxbvex1dd2ZhF0mQ-170" value="" style="ellipse;whiteSpace=wrap;html=1;fillColor=#696969;" vertex="1" parent="1">
          <mxGeometry x="503" y="472" width="20" height="20" as="geometry" />
        </mxCell>
        <mxCell id="s3zXmxbvex1dd2ZhF0mQ-171" value="" style="endArrow=none;html=1;rounded=0;exitX=0.75;exitY=1;exitDx=0;exitDy=0;" edge="1" parent="1">
          <mxGeometry relative="1" as="geometry">
            <mxPoint x="467" y="432" as="sourcePoint" />
            <mxPoint x="483" y="512" as="targetPoint" />
            <Array as="points">
              <mxPoint x="467" y="512" />
            </Array>
          </mxGeometry>
        </mxCell>
        <mxCell id="s3zXmxbvex1dd2ZhF0mQ-172" value="" style="ellipse;whiteSpace=wrap;html=1;fillColor=#FFFFFF;" vertex="1" parent="1">
          <mxGeometry x="483" y="502" width="20" height="20" as="geometry" />
        </mxCell>
        <mxCell id="s3zXmxbvex1dd2ZhF0mQ-173" value="" style="endArrow=none;html=1;rounded=0;exitX=0.583;exitY=1;exitDx=0;exitDy=0;exitPerimeter=0;" edge="1" parent="1">
          <mxGeometry relative="1" as="geometry">
            <mxPoint x="447" y="432" as="sourcePoint" />
            <mxPoint x="463" y="539" as="targetPoint" />
            <Array as="points">
              <mxPoint x="447" y="539" />
            </Array>
          </mxGeometry>
        </mxCell>
        <mxCell id="s3zXmxbvex1dd2ZhF0mQ-174" value="" style="ellipse;whiteSpace=wrap;html=1;fillColor=#FFFFFF;" vertex="1" parent="1">
          <mxGeometry x="463" y="529" width="20" height="20" as="geometry" />
        </mxCell>
        <mxCell id="s3zXmxbvex1dd2ZhF0mQ-175" value="" style="endArrow=none;html=1;rounded=0;exitX=0.423;exitY=0.987;exitDx=0;exitDy=0;exitPerimeter=0;" edge="1" parent="1">
          <mxGeometry relative="1" as="geometry">
            <mxPoint x="428" y="431" as="sourcePoint" />
            <mxPoint x="443" y="569" as="targetPoint" />
            <Array as="points">
              <mxPoint x="427" y="569" />
            </Array>
          </mxGeometry>
        </mxCell>
        <mxCell id="s3zXmxbvex1dd2ZhF0mQ-176" value="" style="ellipse;whiteSpace=wrap;html=1;" vertex="1" parent="1">
          <mxGeometry x="443" y="559" width="20" height="20" as="geometry" />
        </mxCell>
        <mxCell id="s3zXmxbvex1dd2ZhF0mQ-177" value="" style="endArrow=none;html=1;rounded=0;exitX=0.25;exitY=1;exitDx=0;exitDy=0;" edge="1" parent="1">
          <mxGeometry relative="1" as="geometry">
            <mxPoint x="407" y="432" as="sourcePoint" />
            <mxPoint x="423" y="600" as="targetPoint" />
            <Array as="points">
              <mxPoint x="407" y="600" />
            </Array>
          </mxGeometry>
        </mxCell>
        <mxCell id="s3zXmxbvex1dd2ZhF0mQ-178" value="" style="ellipse;whiteSpace=wrap;html=1;" vertex="1" parent="1">
          <mxGeometry x="423" y="591" width="20" height="20" as="geometry" />
        </mxCell>
        <mxCell id="s3zXmxbvex1dd2ZhF0mQ-179" value="idVeterinario" style="text;html=1;align=left;verticalAlign=middle;whiteSpace=wrap;rounded=0;" vertex="1" parent="1">
          <mxGeometry x="525" y="467" width="60" height="30" as="geometry" />
        </mxCell>
        <mxCell id="s3zXmxbvex1dd2ZhF0mQ-180" value="nome" style="text;html=1;align=left;verticalAlign=middle;whiteSpace=wrap;rounded=0;" vertex="1" parent="1">
          <mxGeometry x="505" y="497" width="60" height="30" as="geometry" />
        </mxCell>
        <mxCell id="s3zXmxbvex1dd2ZhF0mQ-181" value="especialidade" style="text;html=1;align=left;verticalAlign=middle;whiteSpace=wrap;rounded=0;" vertex="1" parent="1">
          <mxGeometry x="485" y="524" width="154" height="30" as="geometry" />
        </mxCell>
        <mxCell id="s3zXmxbvex1dd2ZhF0mQ-182" value="telefone" style="text;html=1;align=left;verticalAlign=middle;whiteSpace=wrap;rounded=0;" vertex="1" parent="1">
          <mxGeometry x="466" y="553" width="130" height="30" as="geometry" />
        </mxCell>
        <mxCell id="s3zXmxbvex1dd2ZhF0mQ-183" value="email" style="text;html=1;align=left;verticalAlign=middle;whiteSpace=wrap;rounded=0;" vertex="1" parent="1">
          <mxGeometry x="446" y="588" width="170" height="30" as="geometry" />
        </mxCell>
        <mxCell id="s3zXmxbvex1dd2ZhF0mQ-167" value="" style="endArrow=none;html=1;rounded=0;" edge="1" parent="1">
          <mxGeometry relative="1" as="geometry">
            <mxPoint x="320" y="659.6600000000001" as="sourcePoint" />
            <mxPoint x="400" y="660" as="targetPoint" />
          </mxGeometry>
        </mxCell>
        <mxCell id="s3zXmxbvex1dd2ZhF0mQ-164" value="" style="endArrow=none;html=1;rounded=0;entryX=0.5;entryY=0;entryDx=0;entryDy=0;" edge="1" parent="1">
          <mxGeometry relative="1" as="geometry">
            <mxPoint x="100" y="595" as="sourcePoint" />
            <mxPoint x="100" y="635" as="targetPoint" />
            <Array as="points">
              <mxPoint x="100" y="585" />
              <mxPoint x="100" y="605" />
            </Array>
          </mxGeometry>
        </mxCell>
        <mxCell id="s3zXmxbvex1dd2ZhF0mQ-1" value="&lt;font style=&quot;font-size: 18px;&quot;&gt;Sistema da Clínica Veterinária&lt;/font&gt;" style="text;strokeColor=none;fillColor=none;align=center;verticalAlign=middle;spacingLeft=4;spacingRight=4;overflow=hidden;points=[[0,0.5],[1,0.5]];portConstraint=eastwest;rotatable=0;whiteSpace=wrap;html=1;" vertex="1" parent="1">
          <mxGeometry x="469" y="60" width="244" height="50" as="geometry" />
        </mxCell>
        <mxCell id="s3zXmxbvex1dd2ZhF0mQ-2" value="Tutor" style="rounded=0;whiteSpace=wrap;html=1;" vertex="1" parent="1">
          <mxGeometry x="331" y="130" width="120" height="60" as="geometry" />
        </mxCell>
        <mxCell id="s3zXmxbvex1dd2ZhF0mQ-3" value="Leva" style="rhombus;whiteSpace=wrap;html=1;rounded=0;" vertex="1" parent="1">
          <mxGeometry x="551" y="120" width="80" height="80" as="geometry" />
        </mxCell>
        <mxCell id="s3zXmxbvex1dd2ZhF0mQ-4" value="Para" style="rhombus;whiteSpace=wrap;html=1;rounded=0;" vertex="1" parent="1">
          <mxGeometry x="711" y="260" width="80" height="80" as="geometry" />
        </mxCell>
        <mxCell id="s3zXmxbvex1dd2ZhF0mQ-5" value="" style="endArrow=none;html=1;rounded=0;exitX=0.5;exitY=1;exitDx=0;exitDy=0;" edge="1" parent="1" source="s3zXmxbvex1dd2ZhF0mQ-119" target="s3zXmxbvex1dd2ZhF0mQ-4">
          <mxGeometry relative="1" as="geometry">
            <mxPoint x="511" y="340" as="sourcePoint" />
            <mxPoint x="671" y="340" as="targetPoint" />
          </mxGeometry>
        </mxCell>
        <mxCell id="s3zXmxbvex1dd2ZhF0mQ-6" value="Agendamento (de consulta)" style="whiteSpace=wrap;html=1;rounded=0;" vertex="1" parent="1">
          <mxGeometry x="691.5" y="400" width="120" height="60" as="geometry" />
        </mxCell>
        <mxCell id="s3zXmxbvex1dd2ZhF0mQ-7" value="(1,n)" style="text;html=1;align=center;verticalAlign=middle;whiteSpace=wrap;rounded=0;" vertex="1" parent="1">
          <mxGeometry x="441" y="137" width="60" height="30" as="geometry" />
        </mxCell>
        <mxCell id="s3zXmxbvex1dd2ZhF0mQ-8" value="(1,n)" style="text;html=1;align=center;verticalAlign=middle;whiteSpace=wrap;rounded=0;" vertex="1" parent="1">
          <mxGeometry x="643" y="137" width="60" height="30" as="geometry" />
        </mxCell>
        <mxCell id="s3zXmxbvex1dd2ZhF0mQ-9" value="" style="endArrow=none;html=1;rounded=0;exitX=0.75;exitY=1;exitDx=0;exitDy=0;" edge="1" parent="1">
          <mxGeometry relative="1" as="geometry">
            <mxPoint x="437.0000000000001" y="190" as="sourcePoint" />
            <mxPoint x="457" y="240" as="targetPoint" />
            <Array as="points">
              <mxPoint x="437" y="240" />
            </Array>
          </mxGeometry>
        </mxCell>
        <mxCell id="s3zXmxbvex1dd2ZhF0mQ-10" value="" style="ellipse;whiteSpace=wrap;html=1;fillColor=#696969;" vertex="1" parent="1">
          <mxGeometry x="457" y="230" width="20" height="20" as="geometry" />
        </mxCell>
        <mxCell id="s3zXmxbvex1dd2ZhF0mQ-11" value="" style="endArrow=none;html=1;rounded=0;exitX=0.75;exitY=1;exitDx=0;exitDy=0;" edge="1" parent="1" source="s3zXmxbvex1dd2ZhF0mQ-2">
          <mxGeometry relative="1" as="geometry">
            <mxPoint x="421" y="200" as="sourcePoint" />
            <mxPoint x="437" y="270" as="targetPoint" />
            <Array as="points">
              <mxPoint x="421" y="270" />
            </Array>
          </mxGeometry>
        </mxCell>
        <mxCell id="s3zXmxbvex1dd2ZhF0mQ-12" value="" style="ellipse;whiteSpace=wrap;html=1;" vertex="1" parent="1">
          <mxGeometry x="437" y="260" width="20" height="20" as="geometry" />
        </mxCell>
        <mxCell id="s3zXmxbvex1dd2ZhF0mQ-13" value="" style="endArrow=none;html=1;rounded=0;exitX=0.583;exitY=1;exitDx=0;exitDy=0;exitPerimeter=0;" edge="1" parent="1" source="s3zXmxbvex1dd2ZhF0mQ-2">
          <mxGeometry relative="1" as="geometry">
            <mxPoint x="401" y="217" as="sourcePoint" />
            <mxPoint x="417" y="297" as="targetPoint" />
            <Array as="points">
              <mxPoint x="401" y="297" />
            </Array>
          </mxGeometry>
        </mxCell>
        <mxCell id="s3zXmxbvex1dd2ZhF0mQ-14" value="" style="ellipse;whiteSpace=wrap;html=1;" vertex="1" parent="1">
          <mxGeometry x="417" y="287" width="20" height="20" as="geometry" />
        </mxCell>
        <mxCell id="s3zXmxbvex1dd2ZhF0mQ-15" value="" style="endArrow=none;html=1;rounded=0;exitX=0.423;exitY=0.987;exitDx=0;exitDy=0;exitPerimeter=0;" edge="1" parent="1" source="s3zXmxbvex1dd2ZhF0mQ-2">
          <mxGeometry relative="1" as="geometry">
            <mxPoint x="381" y="200" as="sourcePoint" />
            <mxPoint x="397" y="327" as="targetPoint" />
            <Array as="points">
              <mxPoint x="381" y="327" />
            </Array>
          </mxGeometry>
        </mxCell>
        <mxCell id="s3zXmxbvex1dd2ZhF0mQ-16" value="" style="ellipse;whiteSpace=wrap;html=1;" vertex="1" parent="1">
          <mxGeometry x="397" y="317" width="20" height="20" as="geometry" />
        </mxCell>
        <mxCell id="s3zXmxbvex1dd2ZhF0mQ-17" value="" style="endArrow=none;html=1;rounded=0;exitX=0.25;exitY=1;exitDx=0;exitDy=0;" edge="1" parent="1" source="s3zXmxbvex1dd2ZhF0mQ-2">
          <mxGeometry relative="1" as="geometry">
            <mxPoint x="362" y="220" as="sourcePoint" />
            <mxPoint x="377" y="358" as="targetPoint" />
            <Array as="points">
              <mxPoint x="361" y="358" />
            </Array>
          </mxGeometry>
        </mxCell>
        <mxCell id="s3zXmxbvex1dd2ZhF0mQ-18" value="" style="ellipse;whiteSpace=wrap;html=1;" vertex="1" parent="1">
          <mxGeometry x="377" y="348" width="20" height="20" as="geometry" />
        </mxCell>
        <mxCell id="s3zXmxbvex1dd2ZhF0mQ-19" value="idTutor" style="text;html=1;align=left;verticalAlign=middle;whiteSpace=wrap;rounded=0;" vertex="1" parent="1">
          <mxGeometry x="483" y="225" width="60" height="30" as="geometry" />
        </mxCell>
        <mxCell id="s3zXmxbvex1dd2ZhF0mQ-20" value="nome" style="text;html=1;align=center;verticalAlign=middle;whiteSpace=wrap;rounded=0;" vertex="1" parent="1">
          <mxGeometry x="449" y="255" width="60" height="30" as="geometry" />
        </mxCell>
        <mxCell id="s3zXmxbvex1dd2ZhF0mQ-21" value="endereco" style="text;html=1;align=left;verticalAlign=middle;whiteSpace=wrap;rounded=0;" vertex="1" parent="1">
          <mxGeometry x="440" y="283" width="60" height="30" as="geometry" />
        </mxCell>
        <mxCell id="s3zXmxbvex1dd2ZhF0mQ-22" value="telefone" style="text;html=1;align=left;verticalAlign=middle;whiteSpace=wrap;rounded=0;" vertex="1" parent="1">
          <mxGeometry x="419" y="313" width="60" height="30" as="geometry" />
        </mxCell>
        <mxCell id="s3zXmxbvex1dd2ZhF0mQ-23" value="email" style="text;html=1;align=left;verticalAlign=middle;whiteSpace=wrap;rounded=0;" vertex="1" parent="1">
          <mxGeometry x="400" y="344" width="108" height="30" as="geometry" />
        </mxCell>
        <mxCell id="s3zXmxbvex1dd2ZhF0mQ-24" value="" style="endArrow=none;html=1;rounded=0;exitX=1;exitY=0.25;exitDx=0;exitDy=0;" edge="1" parent="1">
          <mxGeometry relative="1" as="geometry">
            <mxPoint x="811" y="138.00000000000006" as="sourcePoint" />
            <mxPoint x="861" y="170" as="targetPoint" />
            <Array as="points">
              <mxPoint x="841" y="170" />
            </Array>
          </mxGeometry>
        </mxCell>
        <mxCell id="s3zXmxbvex1dd2ZhF0mQ-25" value="" style="ellipse;whiteSpace=wrap;html=1;fillColor=#696969;" vertex="1" parent="1">
          <mxGeometry x="861" y="160" width="20" height="20" as="geometry" />
        </mxCell>
        <mxCell id="s3zXmxbvex1dd2ZhF0mQ-26" value="idTutor" style="text;html=1;align=left;verticalAlign=middle;whiteSpace=wrap;rounded=0;" vertex="1" parent="1">
          <mxGeometry x="882" y="155" width="95" height="30" as="geometry" />
        </mxCell>
        <mxCell id="s3zXmxbvex1dd2ZhF0mQ-27" value="" style="endArrow=none;html=1;rounded=0;exitX=1;exitY=0.25;exitDx=0;exitDy=0;" edge="1" parent="1">
          <mxGeometry relative="1" as="geometry">
            <mxPoint x="811" y="168" as="sourcePoint" />
            <mxPoint x="861" y="200" as="targetPoint" />
            <Array as="points">
              <mxPoint x="841" y="200" />
            </Array>
          </mxGeometry>
        </mxCell>
        <mxCell id="s3zXmxbvex1dd2ZhF0mQ-28" value="" style="ellipse;whiteSpace=wrap;html=1;fillColor=#FFFFFF;" vertex="1" parent="1">
          <mxGeometry x="851" y="190" width="20" height="20" as="geometry" />
        </mxCell>
        <mxCell id="s3zXmxbvex1dd2ZhF0mQ-29" value="nome" style="text;html=1;align=left;verticalAlign=middle;whiteSpace=wrap;rounded=0;" vertex="1" parent="1">
          <mxGeometry x="874" y="186" width="60" height="30" as="geometry" />
        </mxCell>
        <mxCell id="s3zXmxbvex1dd2ZhF0mQ-30" value="" style="endArrow=none;html=1;rounded=0;exitX=0;exitY=0.5;exitDx=0;exitDy=0;entryX=1;entryY=0.5;entryDx=0;entryDy=0;" edge="1" parent="1" source="s3zXmxbvex1dd2ZhF0mQ-3" target="s3zXmxbvex1dd2ZhF0mQ-2">
          <mxGeometry relative="1" as="geometry">
            <mxPoint x="509" y="120" as="sourcePoint" />
            <mxPoint x="456" y="160" as="targetPoint" />
          </mxGeometry>
        </mxCell>
        <mxCell id="s3zXmxbvex1dd2ZhF0mQ-31" value="" style="endArrow=none;html=1;rounded=0;exitX=0.821;exitY=0.969;exitDx=0;exitDy=0;exitPerimeter=0;" edge="1" parent="1">
          <mxGeometry relative="1" as="geometry">
            <mxPoint x="789.52" y="178.1400000000001" as="sourcePoint" />
            <mxPoint x="850" y="226" as="targetPoint" />
            <Array as="points">
              <mxPoint x="830" y="226" />
            </Array>
          </mxGeometry>
        </mxCell>
        <mxCell id="s3zXmxbvex1dd2ZhF0mQ-32" value="" style="ellipse;whiteSpace=wrap;html=1;fillColor=#FAFAFA;" vertex="1" parent="1">
          <mxGeometry x="843" y="217" width="20" height="20" as="geometry" />
        </mxCell>
        <mxCell id="s3zXmxbvex1dd2ZhF0mQ-33" value="especie" style="text;html=1;align=left;verticalAlign=middle;whiteSpace=wrap;rounded=0;" vertex="1" parent="1">
          <mxGeometry x="866" y="212" width="111" height="30" as="geometry" />
        </mxCell>
        <mxCell id="s3zXmxbvex1dd2ZhF0mQ-34" value="" style="endArrow=none;html=1;rounded=0;exitX=0.75;exitY=1;exitDx=0;exitDy=0;" edge="1" parent="1">
          <mxGeometry relative="1" as="geometry">
            <mxPoint x="788" y="172.00000000000006" as="sourcePoint" />
            <mxPoint x="835.24" y="251" as="targetPoint" />
            <Array as="points">
              <mxPoint x="815.24" y="251" />
            </Array>
          </mxGeometry>
        </mxCell>
        <mxCell id="s3zXmxbvex1dd2ZhF0mQ-35" value="" style="ellipse;whiteSpace=wrap;html=1;fillColor=#FAFAFA;" vertex="1" parent="1">
          <mxGeometry x="828.24" y="242" width="20" height="20" as="geometry" />
        </mxCell>
        <mxCell id="s3zXmxbvex1dd2ZhF0mQ-36" value="raca" style="text;html=1;align=left;verticalAlign=middle;whiteSpace=wrap;rounded=0;" vertex="1" parent="1">
          <mxGeometry x="851.24" y="237" width="111" height="30" as="geometry" />
        </mxCell>
        <mxCell id="s3zXmxbvex1dd2ZhF0mQ-37" value="" style="endArrow=none;html=1;rounded=0;exitX=0;exitY=0.5;exitDx=0;exitDy=0;entryX=1;entryY=0.5;entryDx=0;entryDy=0;" edge="1" parent="1" target="s3zXmxbvex1dd2ZhF0mQ-3">
          <mxGeometry relative="1" as="geometry">
            <mxPoint x="691" y="159.58" as="sourcePoint" />
            <mxPoint x="591" y="159.58" as="targetPoint" />
          </mxGeometry>
        </mxCell>
        <mxCell id="s3zXmxbvex1dd2ZhF0mQ-38" value="" style="endArrow=none;html=1;rounded=0;exitX=0.5;exitY=1;exitDx=0;exitDy=0;" edge="1" parent="1">
          <mxGeometry relative="1" as="geometry">
            <mxPoint x="750.58" y="339" as="sourcePoint" />
            <mxPoint x="750" y="400" as="targetPoint" />
          </mxGeometry>
        </mxCell>
        <mxCell id="s3zXmxbvex1dd2ZhF0mQ-39" value="(1,n)" style="text;html=1;align=center;verticalAlign=middle;whiteSpace=wrap;rounded=0;fillColor=default;" vertex="1" parent="1">
          <mxGeometry x="721" y="364" width="60" height="16" as="geometry" />
        </mxCell>
        <mxCell id="s3zXmxbvex1dd2ZhF0mQ-40" value="" style="endArrow=none;html=1;rounded=0;exitX=0.75;exitY=1;exitDx=0;exitDy=0;" edge="1" parent="1">
          <mxGeometry relative="1" as="geometry">
            <mxPoint x="797.0000000000001" y="461" as="sourcePoint" />
            <mxPoint x="817" y="511" as="targetPoint" />
            <Array as="points">
              <mxPoint x="797" y="511" />
            </Array>
          </mxGeometry>
        </mxCell>
        <mxCell id="s3zXmxbvex1dd2ZhF0mQ-41" value="" style="ellipse;whiteSpace=wrap;html=1;fillColor=#696969;" vertex="1" parent="1">
          <mxGeometry x="817" y="501" width="20" height="20" as="geometry" />
        </mxCell>
        <mxCell id="s3zXmxbvex1dd2ZhF0mQ-42" value="" style="endArrow=none;html=1;rounded=0;exitX=0.75;exitY=1;exitDx=0;exitDy=0;" edge="1" parent="1">
          <mxGeometry relative="1" as="geometry">
            <mxPoint x="781" y="461" as="sourcePoint" />
            <mxPoint x="797" y="541" as="targetPoint" />
            <Array as="points">
              <mxPoint x="781" y="541" />
            </Array>
          </mxGeometry>
        </mxCell>
        <mxCell id="s3zXmxbvex1dd2ZhF0mQ-43" value="" style="ellipse;whiteSpace=wrap;html=1;fillColor=#696969;" vertex="1" parent="1">
          <mxGeometry x="797" y="531" width="20" height="20" as="geometry" />
        </mxCell>
        <mxCell id="s3zXmxbvex1dd2ZhF0mQ-44" value="" style="endArrow=none;html=1;rounded=0;exitX=0.583;exitY=1;exitDx=0;exitDy=0;exitPerimeter=0;" edge="1" parent="1">
          <mxGeometry relative="1" as="geometry">
            <mxPoint x="761" y="461" as="sourcePoint" />
            <mxPoint x="777" y="568" as="targetPoint" />
            <Array as="points">
              <mxPoint x="761" y="568" />
            </Array>
          </mxGeometry>
        </mxCell>
        <mxCell id="s3zXmxbvex1dd2ZhF0mQ-45" value="" style="ellipse;whiteSpace=wrap;html=1;fillColor=#696969;" vertex="1" parent="1">
          <mxGeometry x="777" y="558" width="20" height="20" as="geometry" />
        </mxCell>
        <mxCell id="s3zXmxbvex1dd2ZhF0mQ-46" value="" style="endArrow=none;html=1;rounded=0;exitX=0.423;exitY=0.987;exitDx=0;exitDy=0;exitPerimeter=0;" edge="1" parent="1">
          <mxGeometry relative="1" as="geometry">
            <mxPoint x="742" y="460" as="sourcePoint" />
            <mxPoint x="757" y="598" as="targetPoint" />
            <Array as="points">
              <mxPoint x="741" y="598" />
            </Array>
          </mxGeometry>
        </mxCell>
        <mxCell id="s3zXmxbvex1dd2ZhF0mQ-47" value="" style="ellipse;whiteSpace=wrap;html=1;" vertex="1" parent="1">
          <mxGeometry x="757" y="588" width="20" height="20" as="geometry" />
        </mxCell>
        <mxCell id="s3zXmxbvex1dd2ZhF0mQ-48" value="" style="endArrow=none;html=1;rounded=0;exitX=0.25;exitY=1;exitDx=0;exitDy=0;" edge="1" parent="1">
          <mxGeometry relative="1" as="geometry">
            <mxPoint x="721" y="461" as="sourcePoint" />
            <mxPoint x="737" y="629" as="targetPoint" />
            <Array as="points">
              <mxPoint x="721" y="629" />
            </Array>
          </mxGeometry>
        </mxCell>
        <mxCell id="s3zXmxbvex1dd2ZhF0mQ-49" value="" style="ellipse;whiteSpace=wrap;html=1;" vertex="1" parent="1">
          <mxGeometry x="737" y="619" width="20" height="20" as="geometry" />
        </mxCell>
        <mxCell id="s3zXmxbvex1dd2ZhF0mQ-50" value="idAgendamento" style="text;html=1;align=left;verticalAlign=middle;whiteSpace=wrap;rounded=0;" vertex="1" parent="1">
          <mxGeometry x="839" y="496" width="60" height="30" as="geometry" />
        </mxCell>
        <mxCell id="s3zXmxbvex1dd2ZhF0mQ-51" value="idPaciente" style="text;html=1;align=left;verticalAlign=middle;whiteSpace=wrap;rounded=0;" vertex="1" parent="1">
          <mxGeometry x="819" y="526" width="60" height="30" as="geometry" />
        </mxCell>
        <mxCell id="s3zXmxbvex1dd2ZhF0mQ-52" value="idVeterinario" style="text;html=1;align=left;verticalAlign=middle;whiteSpace=wrap;rounded=0;" vertex="1" parent="1">
          <mxGeometry x="799" y="553" width="154" height="30" as="geometry" />
        </mxCell>
        <mxCell id="s3zXmxbvex1dd2ZhF0mQ-53" value="dataHora" style="text;html=1;align=left;verticalAlign=middle;whiteSpace=wrap;rounded=0;" vertex="1" parent="1">
          <mxGeometry x="780" y="582" width="130" height="30" as="geometry" />
        </mxCell>
        <mxCell id="s3zXmxbvex1dd2ZhF0mQ-54" value="motivo" style="text;html=1;align=left;verticalAlign=middle;whiteSpace=wrap;rounded=0;" vertex="1" parent="1">
          <mxGeometry x="760" y="615" width="170" height="30" as="geometry" />
        </mxCell>
        <mxCell id="s3zXmxbvex1dd2ZhF0mQ-55" value="TUTOR" style="shape=table;startSize=30;container=1;collapsible=1;childLayout=tableLayout;fixedRows=1;rowLines=0;fontStyle=1;align=center;resizeLast=1;html=1;whiteSpace=wrap;" vertex="1" parent="1">
          <mxGeometry x="37.75" y="940" width="195" height="180" as="geometry" />
        </mxCell>
        <mxCell id="s3zXmxbvex1dd2ZhF0mQ-56" value="" style="shape=tableRow;horizontal=0;startSize=0;swimlaneHead=0;swimlaneBody=0;fillColor=none;collapsible=0;dropTarget=0;points=[[0,0.5],[1,0.5]];portConstraint=eastwest;top=0;left=0;right=0;bottom=0;html=1;" vertex="1" parent="s3zXmxbvex1dd2ZhF0mQ-55">
          <mxGeometry y="30" width="195" height="30" as="geometry" />
        </mxCell>
        <mxCell id="s3zXmxbvex1dd2ZhF0mQ-57" value="PK" style="shape=partialRectangle;connectable=0;fillColor=none;top=0;left=0;bottom=0;right=0;fontStyle=1;overflow=hidden;html=1;whiteSpace=wrap;strokeColor=default;" vertex="1" parent="s3zXmxbvex1dd2ZhF0mQ-56">
          <mxGeometry width="60" height="30" as="geometry">
            <mxRectangle width="60" height="30" as="alternateBounds" />
          </mxGeometry>
        </mxCell>
        <mxCell id="s3zXmxbvex1dd2ZhF0mQ-58" value="idTutor" style="shape=partialRectangle;connectable=0;fillColor=none;top=0;left=0;bottom=0;right=0;align=left;spacingLeft=6;fontStyle=5;overflow=hidden;html=1;whiteSpace=wrap;strokeColor=default;" vertex="1" parent="s3zXmxbvex1dd2ZhF0mQ-56">
          <mxGeometry x="60" width="135" height="30" as="geometry">
            <mxRectangle width="135" height="30" as="alternateBounds" />
          </mxGeometry>
        </mxCell>
        <mxCell id="s3zXmxbvex1dd2ZhF0mQ-59" value="" style="shape=tableRow;horizontal=0;startSize=0;swimlaneHead=0;swimlaneBody=0;fillColor=none;collapsible=0;dropTarget=0;points=[[0,0.5],[1,0.5]];portConstraint=eastwest;top=0;left=0;right=0;bottom=0;html=1;" vertex="1" parent="s3zXmxbvex1dd2ZhF0mQ-55">
          <mxGeometry y="60" width="195" height="30" as="geometry" />
        </mxCell>
        <mxCell id="s3zXmxbvex1dd2ZhF0mQ-60" value="" style="shape=partialRectangle;connectable=0;fillColor=none;top=0;left=0;bottom=0;right=0;editable=1;overflow=hidden;html=1;whiteSpace=wrap;" vertex="1" parent="s3zXmxbvex1dd2ZhF0mQ-59">
          <mxGeometry width="60" height="30" as="geometry">
            <mxRectangle width="60" height="30" as="alternateBounds" />
          </mxGeometry>
        </mxCell>
        <mxCell id="s3zXmxbvex1dd2ZhF0mQ-61" value="nome" style="shape=partialRectangle;connectable=0;fillColor=none;top=0;left=0;bottom=0;right=0;align=left;spacingLeft=6;overflow=hidden;html=1;whiteSpace=wrap;" vertex="1" parent="s3zXmxbvex1dd2ZhF0mQ-59">
          <mxGeometry x="60" width="135" height="30" as="geometry">
            <mxRectangle width="135" height="30" as="alternateBounds" />
          </mxGeometry>
        </mxCell>
        <mxCell id="s3zXmxbvex1dd2ZhF0mQ-62" value="" style="shape=tableRow;horizontal=0;startSize=0;swimlaneHead=0;swimlaneBody=0;fillColor=none;collapsible=0;dropTarget=0;points=[[0,0.5],[1,0.5]];portConstraint=eastwest;top=0;left=0;right=0;bottom=0;html=1;" vertex="1" parent="s3zXmxbvex1dd2ZhF0mQ-55">
          <mxGeometry y="90" width="195" height="30" as="geometry" />
        </mxCell>
        <mxCell id="s3zXmxbvex1dd2ZhF0mQ-63" value="" style="shape=partialRectangle;connectable=0;fillColor=none;top=0;left=0;bottom=0;right=0;editable=1;overflow=hidden;html=1;whiteSpace=wrap;" vertex="1" parent="s3zXmxbvex1dd2ZhF0mQ-62">
          <mxGeometry width="60" height="30" as="geometry">
            <mxRectangle width="60" height="30" as="alternateBounds" />
          </mxGeometry>
        </mxCell>
        <mxCell id="s3zXmxbvex1dd2ZhF0mQ-64" value="endereco" style="shape=partialRectangle;connectable=0;fillColor=none;top=0;left=0;bottom=0;right=0;align=left;spacingLeft=6;overflow=hidden;html=1;whiteSpace=wrap;" vertex="1" parent="s3zXmxbvex1dd2ZhF0mQ-62">
          <mxGeometry x="60" width="135" height="30" as="geometry">
            <mxRectangle width="135" height="30" as="alternateBounds" />
          </mxGeometry>
        </mxCell>
        <mxCell id="s3zXmxbvex1dd2ZhF0mQ-65" style="shape=tableRow;horizontal=0;startSize=0;swimlaneHead=0;swimlaneBody=0;fillColor=none;collapsible=0;dropTarget=0;points=[[0,0.5],[1,0.5]];portConstraint=eastwest;top=0;left=0;right=0;bottom=0;html=1;" vertex="1" parent="s3zXmxbvex1dd2ZhF0mQ-55">
          <mxGeometry y="120" width="195" height="30" as="geometry" />
        </mxCell>
        <mxCell id="s3zXmxbvex1dd2ZhF0mQ-66" style="shape=partialRectangle;connectable=0;fillColor=none;top=0;left=0;bottom=0;right=0;editable=1;overflow=hidden;html=1;whiteSpace=wrap;" vertex="1" parent="s3zXmxbvex1dd2ZhF0mQ-65">
          <mxGeometry width="60" height="30" as="geometry">
            <mxRectangle width="60" height="30" as="alternateBounds" />
          </mxGeometry>
        </mxCell>
        <mxCell id="s3zXmxbvex1dd2ZhF0mQ-67" value="telefone" style="shape=partialRectangle;connectable=0;fillColor=none;top=0;left=0;bottom=0;right=0;align=left;spacingLeft=6;overflow=hidden;html=1;whiteSpace=wrap;" vertex="1" parent="s3zXmxbvex1dd2ZhF0mQ-65">
          <mxGeometry x="60" width="135" height="30" as="geometry">
            <mxRectangle width="135" height="30" as="alternateBounds" />
          </mxGeometry>
        </mxCell>
        <mxCell id="s3zXmxbvex1dd2ZhF0mQ-68" style="shape=tableRow;horizontal=0;startSize=0;swimlaneHead=0;swimlaneBody=0;fillColor=none;collapsible=0;dropTarget=0;points=[[0,0.5],[1,0.5]];portConstraint=eastwest;top=0;left=0;right=0;bottom=0;html=1;" vertex="1" parent="s3zXmxbvex1dd2ZhF0mQ-55">
          <mxGeometry y="150" width="195" height="30" as="geometry" />
        </mxCell>
        <mxCell id="s3zXmxbvex1dd2ZhF0mQ-69" style="shape=partialRectangle;connectable=0;fillColor=none;top=0;left=0;bottom=0;right=0;editable=1;overflow=hidden;html=1;whiteSpace=wrap;" vertex="1" parent="s3zXmxbvex1dd2ZhF0mQ-68">
          <mxGeometry width="60" height="30" as="geometry">
            <mxRectangle width="60" height="30" as="alternateBounds" />
          </mxGeometry>
        </mxCell>
        <mxCell id="s3zXmxbvex1dd2ZhF0mQ-70" value="email" style="shape=partialRectangle;connectable=0;fillColor=none;top=0;left=0;bottom=0;right=0;align=left;spacingLeft=6;overflow=hidden;html=1;whiteSpace=wrap;" vertex="1" parent="s3zXmxbvex1dd2ZhF0mQ-68">
          <mxGeometry x="60" width="135" height="30" as="geometry">
            <mxRectangle width="135" height="30" as="alternateBounds" />
          </mxGeometry>
        </mxCell>
        <mxCell id="s3zXmxbvex1dd2ZhF0mQ-71" value="" style="line;strokeWidth=1;rotatable=0;dashed=0;labelPosition=right;align=left;verticalAlign=middle;spacingTop=0;spacingLeft=6;points=[];portConstraint=eastwest;" vertex="1" parent="1">
          <mxGeometry x="38.75" y="995" width="194" height="10" as="geometry" />
        </mxCell>
        <mxCell id="s3zXmxbvex1dd2ZhF0mQ-72" value="" style="endArrow=none;html=1;rounded=0;exitX=1.01;exitY=0.129;exitDx=0;exitDy=0;exitPerimeter=0;" edge="1" parent="1" target="s3zXmxbvex1dd2ZhF0mQ-73">
          <mxGeometry relative="1" as="geometry">
            <mxPoint x="811.2" y="130.74" as="sourcePoint" />
            <mxPoint x="875.24" y="145" as="targetPoint" />
            <Array as="points">
              <mxPoint x="855.24" y="145" />
            </Array>
          </mxGeometry>
        </mxCell>
        <mxCell id="s3zXmxbvex1dd2ZhF0mQ-73" value="" style="ellipse;whiteSpace=wrap;html=1;fillColor=#696969;" vertex="1" parent="1">
          <mxGeometry x="876.24" y="135" width="20" height="20" as="geometry" />
        </mxCell>
        <mxCell id="s3zXmxbvex1dd2ZhF0mQ-74" value="idPaciente" style="text;html=1;align=left;verticalAlign=middle;whiteSpace=wrap;rounded=0;" vertex="1" parent="1">
          <mxGeometry x="898.24" y="130" width="60" height="30" as="geometry" />
        </mxCell>
        <mxCell id="s3zXmxbvex1dd2ZhF0mQ-75" value="AGENDAMENTO" style="shape=table;startSize=30;container=1;collapsible=1;childLayout=tableLayout;fixedRows=1;rowLines=0;fontStyle=1;align=center;resizeLast=1;html=1;whiteSpace=wrap;" vertex="1" parent="1">
          <mxGeometry x="516.25" y="940" width="195" height="180" as="geometry" />
        </mxCell>
        <mxCell id="s3zXmxbvex1dd2ZhF0mQ-76" value="" style="shape=tableRow;horizontal=0;startSize=0;swimlaneHead=0;swimlaneBody=0;fillColor=none;collapsible=0;dropTarget=0;points=[[0,0.5],[1,0.5]];portConstraint=eastwest;top=0;left=0;right=0;bottom=0;html=1;" vertex="1" parent="s3zXmxbvex1dd2ZhF0mQ-75">
          <mxGeometry y="30" width="195" height="30" as="geometry" />
        </mxCell>
        <mxCell id="s3zXmxbvex1dd2ZhF0mQ-77" value="PK" style="shape=partialRectangle;connectable=0;fillColor=none;top=0;left=0;bottom=0;right=0;fontStyle=1;overflow=hidden;html=1;whiteSpace=wrap;strokeColor=default;" vertex="1" parent="s3zXmxbvex1dd2ZhF0mQ-76">
          <mxGeometry width="60" height="30" as="geometry">
            <mxRectangle width="60" height="30" as="alternateBounds" />
          </mxGeometry>
        </mxCell>
        <mxCell id="s3zXmxbvex1dd2ZhF0mQ-78" value="idAgendamento" style="shape=partialRectangle;connectable=0;fillColor=none;top=0;left=0;bottom=0;right=0;align=left;spacingLeft=6;fontStyle=5;overflow=hidden;html=1;whiteSpace=wrap;strokeColor=default;" vertex="1" parent="s3zXmxbvex1dd2ZhF0mQ-76">
          <mxGeometry x="60" width="135" height="30" as="geometry">
            <mxRectangle width="135" height="30" as="alternateBounds" />
          </mxGeometry>
        </mxCell>
        <mxCell id="s3zXmxbvex1dd2ZhF0mQ-247" style="shape=tableRow;horizontal=0;startSize=0;swimlaneHead=0;swimlaneBody=0;fillColor=none;collapsible=0;dropTarget=0;points=[[0,0.5],[1,0.5]];portConstraint=eastwest;top=0;left=0;right=0;bottom=0;html=1;" vertex="1" parent="s3zXmxbvex1dd2ZhF0mQ-75">
          <mxGeometry y="60" width="195" height="30" as="geometry" />
        </mxCell>
        <mxCell id="s3zXmxbvex1dd2ZhF0mQ-248" value="FK1" style="shape=partialRectangle;connectable=0;fillColor=none;top=0;left=0;bottom=0;right=0;fontStyle=1;overflow=hidden;html=1;whiteSpace=wrap;strokeColor=default;" vertex="1" parent="s3zXmxbvex1dd2ZhF0mQ-247">
          <mxGeometry width="60" height="30" as="geometry">
            <mxRectangle width="60" height="30" as="alternateBounds" />
          </mxGeometry>
        </mxCell>
        <mxCell id="s3zXmxbvex1dd2ZhF0mQ-249" value="idPaciente" style="shape=partialRectangle;connectable=0;fillColor=none;top=0;left=0;bottom=0;right=0;align=left;spacingLeft=6;fontStyle=5;overflow=hidden;html=1;whiteSpace=wrap;strokeColor=default;" vertex="1" parent="s3zXmxbvex1dd2ZhF0mQ-247">
          <mxGeometry x="60" width="135" height="30" as="geometry">
            <mxRectangle width="135" height="30" as="alternateBounds" />
          </mxGeometry>
        </mxCell>
        <mxCell id="s3zXmxbvex1dd2ZhF0mQ-244" style="shape=tableRow;horizontal=0;startSize=0;swimlaneHead=0;swimlaneBody=0;fillColor=none;collapsible=0;dropTarget=0;points=[[0,0.5],[1,0.5]];portConstraint=eastwest;top=0;left=0;right=0;bottom=0;html=1;" vertex="1" parent="s3zXmxbvex1dd2ZhF0mQ-75">
          <mxGeometry y="90" width="195" height="30" as="geometry" />
        </mxCell>
        <mxCell id="s3zXmxbvex1dd2ZhF0mQ-245" value="FK2" style="shape=partialRectangle;connectable=0;fillColor=none;top=0;left=0;bottom=0;right=0;fontStyle=1;overflow=hidden;html=1;whiteSpace=wrap;strokeColor=default;" vertex="1" parent="s3zXmxbvex1dd2ZhF0mQ-244">
          <mxGeometry width="60" height="30" as="geometry">
            <mxRectangle width="60" height="30" as="alternateBounds" />
          </mxGeometry>
        </mxCell>
        <mxCell id="s3zXmxbvex1dd2ZhF0mQ-246" value="idVeterinario" style="shape=partialRectangle;connectable=0;fillColor=none;top=0;left=0;bottom=0;right=0;align=left;spacingLeft=6;fontStyle=5;overflow=hidden;html=1;whiteSpace=wrap;strokeColor=default;" vertex="1" parent="s3zXmxbvex1dd2ZhF0mQ-244">
          <mxGeometry x="60" width="135" height="30" as="geometry">
            <mxRectangle width="135" height="30" as="alternateBounds" />
          </mxGeometry>
        </mxCell>
        <mxCell id="s3zXmxbvex1dd2ZhF0mQ-79" value="" style="shape=tableRow;horizontal=0;startSize=0;swimlaneHead=0;swimlaneBody=0;fillColor=none;collapsible=0;dropTarget=0;points=[[0,0.5],[1,0.5]];portConstraint=eastwest;top=0;left=0;right=0;bottom=0;html=1;" vertex="1" parent="s3zXmxbvex1dd2ZhF0mQ-75">
          <mxGeometry y="120" width="195" height="30" as="geometry" />
        </mxCell>
        <mxCell id="s3zXmxbvex1dd2ZhF0mQ-80" value="" style="shape=partialRectangle;connectable=0;fillColor=none;top=0;left=0;bottom=0;right=0;editable=1;overflow=hidden;html=1;whiteSpace=wrap;" vertex="1" parent="s3zXmxbvex1dd2ZhF0mQ-79">
          <mxGeometry width="60" height="30" as="geometry">
            <mxRectangle width="60" height="30" as="alternateBounds" />
          </mxGeometry>
        </mxCell>
        <mxCell id="s3zXmxbvex1dd2ZhF0mQ-81" value="dataHora" style="shape=partialRectangle;connectable=0;fillColor=none;top=0;left=0;bottom=0;right=0;align=left;spacingLeft=6;overflow=hidden;html=1;whiteSpace=wrap;" vertex="1" parent="s3zXmxbvex1dd2ZhF0mQ-79">
          <mxGeometry x="60" width="135" height="30" as="geometry">
            <mxRectangle width="135" height="30" as="alternateBounds" />
          </mxGeometry>
        </mxCell>
        <mxCell id="s3zXmxbvex1dd2ZhF0mQ-82" value="" style="shape=tableRow;horizontal=0;startSize=0;swimlaneHead=0;swimlaneBody=0;fillColor=none;collapsible=0;dropTarget=0;points=[[0,0.5],[1,0.5]];portConstraint=eastwest;top=0;left=0;right=0;bottom=0;html=1;" vertex="1" parent="s3zXmxbvex1dd2ZhF0mQ-75">
          <mxGeometry y="150" width="195" height="30" as="geometry" />
        </mxCell>
        <mxCell id="s3zXmxbvex1dd2ZhF0mQ-83" value="" style="shape=partialRectangle;connectable=0;fillColor=none;top=0;left=0;bottom=0;right=0;editable=1;overflow=hidden;html=1;whiteSpace=wrap;" vertex="1" parent="s3zXmxbvex1dd2ZhF0mQ-82">
          <mxGeometry width="60" height="30" as="geometry">
            <mxRectangle width="60" height="30" as="alternateBounds" />
          </mxGeometry>
        </mxCell>
        <mxCell id="s3zXmxbvex1dd2ZhF0mQ-84" value="motivo" style="shape=partialRectangle;connectable=0;fillColor=none;top=0;left=0;bottom=0;right=0;align=left;spacingLeft=6;overflow=hidden;html=1;whiteSpace=wrap;" vertex="1" parent="s3zXmxbvex1dd2ZhF0mQ-82">
          <mxGeometry x="60" width="135" height="30" as="geometry">
            <mxRectangle width="135" height="30" as="alternateBounds" />
          </mxGeometry>
        </mxCell>
        <mxCell id="s3zXmxbvex1dd2ZhF0mQ-91" value="" style="line;strokeWidth=1;rotatable=0;dashed=0;labelPosition=right;align=left;verticalAlign=middle;spacingTop=0;spacingLeft=6;points=[];portConstraint=eastwest;" vertex="1" parent="1">
          <mxGeometry x="517.25" y="1052" width="194" height="10" as="geometry" />
        </mxCell>
        <mxCell id="s3zXmxbvex1dd2ZhF0mQ-92" value="PACIENTE" style="shape=table;startSize=30;container=1;collapsible=1;childLayout=tableLayout;fixedRows=1;rowLines=0;fontStyle=1;align=center;resizeLast=1;html=1;whiteSpace=wrap;" vertex="1" parent="1">
          <mxGeometry x="277.25" y="940" width="195" height="240" as="geometry" />
        </mxCell>
        <mxCell id="s3zXmxbvex1dd2ZhF0mQ-93" value="" style="shape=tableRow;horizontal=0;startSize=0;swimlaneHead=0;swimlaneBody=0;fillColor=none;collapsible=0;dropTarget=0;points=[[0,0.5],[1,0.5]];portConstraint=eastwest;top=0;left=0;right=0;bottom=0;html=1;" vertex="1" parent="s3zXmxbvex1dd2ZhF0mQ-92">
          <mxGeometry y="30" width="195" height="30" as="geometry" />
        </mxCell>
        <mxCell id="s3zXmxbvex1dd2ZhF0mQ-94" value="PK" style="shape=partialRectangle;connectable=0;fillColor=none;top=0;left=0;bottom=0;right=0;fontStyle=1;overflow=hidden;html=1;whiteSpace=wrap;strokeColor=default;" vertex="1" parent="s3zXmxbvex1dd2ZhF0mQ-93">
          <mxGeometry width="60" height="30" as="geometry">
            <mxRectangle width="60" height="30" as="alternateBounds" />
          </mxGeometry>
        </mxCell>
        <mxCell id="s3zXmxbvex1dd2ZhF0mQ-95" value="idPaciente" style="shape=partialRectangle;connectable=0;fillColor=none;top=0;left=0;bottom=0;right=0;align=left;spacingLeft=6;fontStyle=5;overflow=hidden;html=1;whiteSpace=wrap;strokeColor=default;" vertex="1" parent="s3zXmxbvex1dd2ZhF0mQ-93">
          <mxGeometry x="60" width="135" height="30" as="geometry">
            <mxRectangle width="135" height="30" as="alternateBounds" />
          </mxGeometry>
        </mxCell>
        <mxCell id="s3zXmxbvex1dd2ZhF0mQ-96" style="shape=tableRow;horizontal=0;startSize=0;swimlaneHead=0;swimlaneBody=0;fillColor=none;collapsible=0;dropTarget=0;points=[[0,0.5],[1,0.5]];portConstraint=eastwest;top=0;left=0;right=0;bottom=0;html=1;" vertex="1" parent="s3zXmxbvex1dd2ZhF0mQ-92">
          <mxGeometry y="60" width="195" height="30" as="geometry" />
        </mxCell>
        <mxCell id="s3zXmxbvex1dd2ZhF0mQ-97" value="FK1" style="shape=partialRectangle;connectable=0;fillColor=none;top=0;left=0;bottom=0;right=0;fontStyle=1;overflow=hidden;html=1;whiteSpace=wrap;strokeColor=default;" vertex="1" parent="s3zXmxbvex1dd2ZhF0mQ-96">
          <mxGeometry width="60" height="30" as="geometry">
            <mxRectangle width="60" height="30" as="alternateBounds" />
          </mxGeometry>
        </mxCell>
        <mxCell id="s3zXmxbvex1dd2ZhF0mQ-98" value="idTutor" style="shape=partialRectangle;connectable=0;fillColor=none;top=0;left=0;bottom=0;right=0;align=left;spacingLeft=6;fontStyle=5;overflow=hidden;html=1;whiteSpace=wrap;strokeColor=default;" vertex="1" parent="s3zXmxbvex1dd2ZhF0mQ-96">
          <mxGeometry x="60" width="135" height="30" as="geometry">
            <mxRectangle width="135" height="30" as="alternateBounds" />
          </mxGeometry>
        </mxCell>
        <mxCell id="s3zXmxbvex1dd2ZhF0mQ-102" value="" style="shape=tableRow;horizontal=0;startSize=0;swimlaneHead=0;swimlaneBody=0;fillColor=none;collapsible=0;dropTarget=0;points=[[0,0.5],[1,0.5]];portConstraint=eastwest;top=0;left=0;right=0;bottom=0;html=1;" vertex="1" parent="s3zXmxbvex1dd2ZhF0mQ-92">
          <mxGeometry y="90" width="195" height="30" as="geometry" />
        </mxCell>
        <mxCell id="s3zXmxbvex1dd2ZhF0mQ-103" value="" style="shape=partialRectangle;connectable=0;fillColor=none;top=0;left=0;bottom=0;right=0;editable=1;overflow=hidden;html=1;whiteSpace=wrap;" vertex="1" parent="s3zXmxbvex1dd2ZhF0mQ-102">
          <mxGeometry width="60" height="30" as="geometry">
            <mxRectangle width="60" height="30" as="alternateBounds" />
          </mxGeometry>
        </mxCell>
        <mxCell id="s3zXmxbvex1dd2ZhF0mQ-104" value="nome" style="shape=partialRectangle;connectable=0;fillColor=none;top=0;left=0;bottom=0;right=0;align=left;spacingLeft=6;overflow=hidden;html=1;whiteSpace=wrap;" vertex="1" parent="s3zXmxbvex1dd2ZhF0mQ-102">
          <mxGeometry x="60" width="135" height="30" as="geometry">
            <mxRectangle width="135" height="30" as="alternateBounds" />
          </mxGeometry>
        </mxCell>
        <mxCell id="s3zXmxbvex1dd2ZhF0mQ-105" value="" style="shape=tableRow;horizontal=0;startSize=0;swimlaneHead=0;swimlaneBody=0;fillColor=none;collapsible=0;dropTarget=0;points=[[0,0.5],[1,0.5]];portConstraint=eastwest;top=0;left=0;right=0;bottom=0;html=1;" vertex="1" parent="s3zXmxbvex1dd2ZhF0mQ-92">
          <mxGeometry y="120" width="195" height="30" as="geometry" />
        </mxCell>
        <mxCell id="s3zXmxbvex1dd2ZhF0mQ-106" value="" style="shape=partialRectangle;connectable=0;fillColor=none;top=0;left=0;bottom=0;right=0;editable=1;overflow=hidden;html=1;whiteSpace=wrap;" vertex="1" parent="s3zXmxbvex1dd2ZhF0mQ-105">
          <mxGeometry width="60" height="30" as="geometry">
            <mxRectangle width="60" height="30" as="alternateBounds" />
          </mxGeometry>
        </mxCell>
        <mxCell id="s3zXmxbvex1dd2ZhF0mQ-107" value="especie" style="shape=partialRectangle;connectable=0;fillColor=none;top=0;left=0;bottom=0;right=0;align=left;spacingLeft=6;overflow=hidden;html=1;whiteSpace=wrap;" vertex="1" parent="s3zXmxbvex1dd2ZhF0mQ-105">
          <mxGeometry x="60" width="135" height="30" as="geometry">
            <mxRectangle width="135" height="30" as="alternateBounds" />
          </mxGeometry>
        </mxCell>
        <mxCell id="s3zXmxbvex1dd2ZhF0mQ-108" style="shape=tableRow;horizontal=0;startSize=0;swimlaneHead=0;swimlaneBody=0;fillColor=none;collapsible=0;dropTarget=0;points=[[0,0.5],[1,0.5]];portConstraint=eastwest;top=0;left=0;right=0;bottom=0;html=1;" vertex="1" parent="s3zXmxbvex1dd2ZhF0mQ-92">
          <mxGeometry y="150" width="195" height="30" as="geometry" />
        </mxCell>
        <mxCell id="s3zXmxbvex1dd2ZhF0mQ-109" style="shape=partialRectangle;connectable=0;fillColor=none;top=0;left=0;bottom=0;right=0;editable=1;overflow=hidden;html=1;whiteSpace=wrap;" vertex="1" parent="s3zXmxbvex1dd2ZhF0mQ-108">
          <mxGeometry width="60" height="30" as="geometry">
            <mxRectangle width="60" height="30" as="alternateBounds" />
          </mxGeometry>
        </mxCell>
        <mxCell id="s3zXmxbvex1dd2ZhF0mQ-110" value="raca" style="shape=partialRectangle;connectable=0;fillColor=none;top=0;left=0;bottom=0;right=0;align=left;spacingLeft=6;overflow=hidden;html=1;whiteSpace=wrap;" vertex="1" parent="s3zXmxbvex1dd2ZhF0mQ-108">
          <mxGeometry x="60" width="135" height="30" as="geometry">
            <mxRectangle width="135" height="30" as="alternateBounds" />
          </mxGeometry>
        </mxCell>
        <mxCell id="s3zXmxbvex1dd2ZhF0mQ-111" style="shape=tableRow;horizontal=0;startSize=0;swimlaneHead=0;swimlaneBody=0;fillColor=none;collapsible=0;dropTarget=0;points=[[0,0.5],[1,0.5]];portConstraint=eastwest;top=0;left=0;right=0;bottom=0;html=1;" vertex="1" parent="s3zXmxbvex1dd2ZhF0mQ-92">
          <mxGeometry y="180" width="195" height="30" as="geometry" />
        </mxCell>
        <mxCell id="s3zXmxbvex1dd2ZhF0mQ-112" style="shape=partialRectangle;connectable=0;fillColor=none;top=0;left=0;bottom=0;right=0;editable=1;overflow=hidden;html=1;whiteSpace=wrap;" vertex="1" parent="s3zXmxbvex1dd2ZhF0mQ-111">
          <mxGeometry width="60" height="30" as="geometry">
            <mxRectangle width="60" height="30" as="alternateBounds" />
          </mxGeometry>
        </mxCell>
        <mxCell id="s3zXmxbvex1dd2ZhF0mQ-113" value="idade" style="shape=partialRectangle;connectable=0;fillColor=none;top=0;left=0;bottom=0;right=0;align=left;spacingLeft=6;overflow=hidden;html=1;whiteSpace=wrap;" vertex="1" parent="s3zXmxbvex1dd2ZhF0mQ-111">
          <mxGeometry x="60" width="135" height="30" as="geometry">
            <mxRectangle width="135" height="30" as="alternateBounds" />
          </mxGeometry>
        </mxCell>
        <mxCell id="s3zXmxbvex1dd2ZhF0mQ-241" style="shape=tableRow;horizontal=0;startSize=0;swimlaneHead=0;swimlaneBody=0;fillColor=none;collapsible=0;dropTarget=0;points=[[0,0.5],[1,0.5]];portConstraint=eastwest;top=0;left=0;right=0;bottom=0;html=1;" vertex="1" parent="s3zXmxbvex1dd2ZhF0mQ-92">
          <mxGeometry y="210" width="195" height="30" as="geometry" />
        </mxCell>
        <mxCell id="s3zXmxbvex1dd2ZhF0mQ-242" style="shape=partialRectangle;connectable=0;fillColor=none;top=0;left=0;bottom=0;right=0;editable=1;overflow=hidden;html=1;whiteSpace=wrap;" vertex="1" parent="s3zXmxbvex1dd2ZhF0mQ-241">
          <mxGeometry width="60" height="30" as="geometry">
            <mxRectangle width="60" height="30" as="alternateBounds" />
          </mxGeometry>
        </mxCell>
        <mxCell id="s3zXmxbvex1dd2ZhF0mQ-243" value="peso" style="shape=partialRectangle;connectable=0;fillColor=none;top=0;left=0;bottom=0;right=0;align=left;spacingLeft=6;overflow=hidden;html=1;whiteSpace=wrap;" vertex="1" parent="s3zXmxbvex1dd2ZhF0mQ-241">
          <mxGeometry x="60" width="135" height="30" as="geometry">
            <mxRectangle width="135" height="30" as="alternateBounds" />
          </mxGeometry>
        </mxCell>
        <mxCell id="s3zXmxbvex1dd2ZhF0mQ-114" value="" style="line;strokeWidth=1;rotatable=0;dashed=0;labelPosition=right;align=left;verticalAlign=middle;spacingTop=0;spacingLeft=6;points=[];portConstraint=eastwest;" vertex="1" parent="1">
          <mxGeometry x="277.25" y="1024" width="194" height="10" as="geometry" />
        </mxCell>
        <mxCell id="s3zXmxbvex1dd2ZhF0mQ-115" value="(1,n)" style="text;html=1;align=center;verticalAlign=middle;whiteSpace=wrap;rounded=0;fillColor=default;" vertex="1" parent="1">
          <mxGeometry x="721" y="224" width="60" height="16" as="geometry" />
        </mxCell>
        <mxCell id="s3zXmxbvex1dd2ZhF0mQ-116" value="" style="endArrow=none;html=1;rounded=0;exitX=0.696;exitY=1.019;exitDx=0;exitDy=0;exitPerimeter=0;" edge="1" parent="1">
          <mxGeometry relative="1" as="geometry">
            <mxPoint x="783.52" y="177.14000000000004" as="sourcePoint" />
            <mxPoint x="830" y="277" as="targetPoint" />
            <Array as="points">
              <mxPoint x="800" y="277" />
            </Array>
          </mxGeometry>
        </mxCell>
        <mxCell id="s3zXmxbvex1dd2ZhF0mQ-117" value="" style="ellipse;whiteSpace=wrap;html=1;fillColor=#FAFAFA;" vertex="1" parent="1">
          <mxGeometry x="812" y="267" width="20" height="20" as="geometry" />
        </mxCell>
        <mxCell id="s3zXmxbvex1dd2ZhF0mQ-118" value="idade" style="text;html=1;align=left;verticalAlign=middle;whiteSpace=wrap;rounded=0;" vertex="1" parent="1">
          <mxGeometry x="836" y="263" width="111" height="30" as="geometry" />
        </mxCell>
        <mxCell id="s3zXmxbvex1dd2ZhF0mQ-119" value="Paciente" style="whiteSpace=wrap;html=1;rounded=0;" vertex="1" parent="1">
          <mxGeometry x="691" y="130" width="120" height="60" as="geometry" />
        </mxCell>
        <mxCell id="s3zXmxbvex1dd2ZhF0mQ-120" value="" style="edgeStyle=entityRelationEdgeStyle;fontSize=12;html=1;endArrow=ERoneToMany;rounded=0;entryX=0;entryY=0.5;entryDx=0;entryDy=0;exitX=1;exitY=0.5;exitDx=0;exitDy=0;" edge="1" parent="1" source="s3zXmxbvex1dd2ZhF0mQ-62" target="s3zXmxbvex1dd2ZhF0mQ-102">
          <mxGeometry width="100" height="100" relative="1" as="geometry">
            <mxPoint x="172.75" y="1160" as="sourcePoint" />
            <mxPoint x="272.75" y="1060" as="targetPoint" />
          </mxGeometry>
        </mxCell>
        <mxCell id="s3zXmxbvex1dd2ZhF0mQ-121" value="" style="edgeStyle=entityRelationEdgeStyle;fontSize=12;html=1;endArrow=ERoneToMany;rounded=0;exitX=1;exitY=0.5;exitDx=0;exitDy=0;entryX=0;entryY=0.5;entryDx=0;entryDy=0;" edge="1" parent="1" source="s3zXmxbvex1dd2ZhF0mQ-102" target="s3zXmxbvex1dd2ZhF0mQ-85">
          <mxGeometry width="100" height="100" relative="1" as="geometry">
            <mxPoint x="361.75" y="1150" as="sourcePoint" />
            <mxPoint x="461.75" y="1050" as="targetPoint" />
          </mxGeometry>
        </mxCell>
        <mxCell id="s3zXmxbvex1dd2ZhF0mQ-122" value="" style="endArrow=none;html=1;rounded=0;exitX=0.75;exitY=1;exitDx=0;exitDy=0;" edge="1" parent="1" source="s3zXmxbvex1dd2ZhF0mQ-119">
          <mxGeometry relative="1" as="geometry">
            <mxPoint x="769.02" y="200.14000000000004" as="sourcePoint" />
            <mxPoint x="815.5" y="300" as="targetPoint" />
            <Array as="points">
              <mxPoint x="791" y="290" />
            </Array>
          </mxGeometry>
        </mxCell>
        <mxCell id="s3zXmxbvex1dd2ZhF0mQ-123" value="" style="ellipse;whiteSpace=wrap;html=1;fillColor=#FAFAFA;" vertex="1" parent="1">
          <mxGeometry x="797.5" y="290" width="20" height="20" as="geometry" />
        </mxCell>
        <mxCell id="s3zXmxbvex1dd2ZhF0mQ-124" value="peso" style="text;html=1;align=left;verticalAlign=middle;whiteSpace=wrap;rounded=0;" vertex="1" parent="1">
          <mxGeometry x="819.5" y="286" width="111" height="30" as="geometry" />
        </mxCell>
        <mxCell id="s3zXmxbvex1dd2ZhF0mQ-149" value="No" style="rhombus;whiteSpace=wrap;html=1;rounded=0;" vertex="1" parent="1">
          <mxGeometry x="570" y="390" width="80" height="80" as="geometry" />
        </mxCell>
        <mxCell id="s3zXmxbvex1dd2ZhF0mQ-150" value="Veterinário" style="whiteSpace=wrap;html=1;rounded=0;" vertex="1" parent="1">
          <mxGeometry x="381" y="400" width="120" height="60" as="geometry" />
        </mxCell>
        <mxCell id="s3zXmxbvex1dd2ZhF0mQ-151" value="Que" style="rhombus;whiteSpace=wrap;html=1;rounded=0;" vertex="1" parent="1">
          <mxGeometry x="240" y="390" width="80" height="80" as="geometry" />
        </mxCell>
        <mxCell id="s3zXmxbvex1dd2ZhF0mQ-152" value="Receita" style="whiteSpace=wrap;html=1;rounded=0;" vertex="1" parent="1">
          <mxGeometry x="40" y="400" width="120" height="60" as="geometry" />
        </mxCell>
        <mxCell id="s3zXmxbvex1dd2ZhF0mQ-153" value="Um" style="rhombus;whiteSpace=wrap;html=1;rounded=0;" vertex="1" parent="1">
          <mxGeometry x="60" y="508" width="80" height="80" as="geometry" />
        </mxCell>
        <mxCell id="s3zXmxbvex1dd2ZhF0mQ-154" value="Item de Receita" style="whiteSpace=wrap;html=1;rounded=0;" vertex="1" parent="1">
          <mxGeometry x="40" y="630" width="120" height="60" as="geometry" />
        </mxCell>
        <mxCell id="s3zXmxbvex1dd2ZhF0mQ-155" value="&lt;div&gt;&lt;br&gt;&lt;/div&gt;Que consiste em um" style="rhombus;whiteSpace=wrap;html=1;rounded=0;" vertex="1" parent="1">
          <mxGeometry x="240" y="620" width="80" height="80" as="geometry" />
        </mxCell>
        <mxCell id="s3zXmxbvex1dd2ZhF0mQ-156" value="Medicamento" style="whiteSpace=wrap;html=1;rounded=0;" vertex="1" parent="1">
          <mxGeometry x="397" y="630" width="120" height="60" as="geometry" />
        </mxCell>
        <mxCell id="s3zXmxbvex1dd2ZhF0mQ-158" value="" style="endArrow=none;html=1;rounded=0;exitX=1;exitY=0.5;exitDx=0;exitDy=0;entryX=0;entryY=0.5;entryDx=0;entryDy=0;" edge="1" parent="1" source="s3zXmxbvex1dd2ZhF0mQ-149" target="s3zXmxbvex1dd2ZhF0mQ-6">
          <mxGeometry relative="1" as="geometry">
            <mxPoint x="760.58" y="349" as="sourcePoint" />
            <mxPoint x="760" y="410" as="targetPoint" />
          </mxGeometry>
        </mxCell>
        <mxCell id="s3zXmxbvex1dd2ZhF0mQ-159" value="" style="endArrow=none;html=1;rounded=0;" edge="1" parent="1">
          <mxGeometry relative="1" as="geometry">
            <mxPoint x="501" y="430" as="sourcePoint" />
            <mxPoint x="571" y="430" as="targetPoint" />
          </mxGeometry>
        </mxCell>
        <mxCell id="s3zXmxbvex1dd2ZhF0mQ-160" value="" style="endArrow=none;html=1;rounded=0;" edge="1" parent="1">
          <mxGeometry relative="1" as="geometry">
            <mxPoint x="320" y="429.65999999999997" as="sourcePoint" />
            <mxPoint x="320" y="430" as="targetPoint" />
            <Array as="points">
              <mxPoint x="380" y="430" />
            </Array>
          </mxGeometry>
        </mxCell>
        <mxCell id="s3zXmxbvex1dd2ZhF0mQ-161" value="" style="endArrow=none;html=1;rounded=0;entryX=0;entryY=0.5;entryDx=0;entryDy=0;" edge="1" parent="1" target="s3zXmxbvex1dd2ZhF0mQ-151">
          <mxGeometry relative="1" as="geometry">
            <mxPoint x="160" y="429.66" as="sourcePoint" />
            <mxPoint x="230" y="429.66" as="targetPoint" />
          </mxGeometry>
        </mxCell>
        <mxCell id="s3zXmxbvex1dd2ZhF0mQ-162" value="" style="endArrow=none;html=1;rounded=0;exitX=0.5;exitY=1;exitDx=0;exitDy=0;entryX=0.5;entryY=0;entryDx=0;entryDy=0;" edge="1" parent="1" source="s3zXmxbvex1dd2ZhF0mQ-152" target="s3zXmxbvex1dd2ZhF0mQ-153">
          <mxGeometry relative="1" as="geometry">
            <mxPoint x="120" y="480" as="sourcePoint" />
            <mxPoint x="200" y="480" as="targetPoint" />
          </mxGeometry>
        </mxCell>
        <mxCell id="s3zXmxbvex1dd2ZhF0mQ-166" value="" style="endArrow=none;html=1;rounded=0;entryX=0;entryY=0.5;entryDx=0;entryDy=0;" edge="1" parent="1">
          <mxGeometry relative="1" as="geometry">
            <mxPoint x="160" y="659.6600000000001" as="sourcePoint" />
            <mxPoint x="240" y="660" as="targetPoint" />
          </mxGeometry>
        </mxCell>
        <mxCell id="s3zXmxbvex1dd2ZhF0mQ-185" value="" style="ellipse;whiteSpace=wrap;html=1;fillColor=#696969;" vertex="1" parent="1">
          <mxGeometry x="201" y="466" width="20" height="20" as="geometry" />
        </mxCell>
        <mxCell id="s3zXmxbvex1dd2ZhF0mQ-187" value="" style="ellipse;whiteSpace=wrap;html=1;fillColor=#696969;" vertex="1" parent="1">
          <mxGeometry x="186" y="491" width="20" height="20" as="geometry" />
        </mxCell>
        <mxCell id="s3zXmxbvex1dd2ZhF0mQ-189" value="" style="ellipse;whiteSpace=wrap;html=1;fillColor=#FFFFFF;" vertex="1" parent="1">
          <mxGeometry x="170" y="517" width="20" height="20" as="geometry" />
        </mxCell>
        <mxCell id="s3zXmxbvex1dd2ZhF0mQ-194" value="idReceita" style="text;html=1;align=left;verticalAlign=middle;whiteSpace=wrap;rounded=0;" vertex="1" parent="1">
          <mxGeometry x="222" y="461" width="60" height="30" as="geometry" />
        </mxCell>
        <mxCell id="s3zXmxbvex1dd2ZhF0mQ-195" value="idAgendamento" style="text;html=1;align=left;verticalAlign=middle;whiteSpace=wrap;rounded=0;" vertex="1" parent="1">
          <mxGeometry x="207" y="487" width="60" height="30" as="geometry" />
        </mxCell>
        <mxCell id="s3zXmxbvex1dd2ZhF0mQ-196" value="dataEmissao" style="text;html=1;align=left;verticalAlign=middle;whiteSpace=wrap;rounded=0;" vertex="1" parent="1">
          <mxGeometry x="190" y="512" width="130" height="30" as="geometry" />
        </mxCell>
        <mxCell id="s3zXmxbvex1dd2ZhF0mQ-199" value="" style="endArrow=none;html=1;rounded=0;exitX=0.75;exitY=1;exitDx=0;exitDy=0;" edge="1" parent="1">
          <mxGeometry relative="1" as="geometry">
            <mxPoint x="138.0000000000001" y="691" as="sourcePoint" />
            <mxPoint x="158" y="741" as="targetPoint" />
            <Array as="points">
              <mxPoint x="138" y="741" />
            </Array>
          </mxGeometry>
        </mxCell>
        <mxCell id="s3zXmxbvex1dd2ZhF0mQ-200" value="" style="ellipse;whiteSpace=wrap;html=1;fillColor=#696969;" vertex="1" parent="1">
          <mxGeometry x="158" y="731" width="20" height="20" as="geometry" />
        </mxCell>
        <mxCell id="s3zXmxbvex1dd2ZhF0mQ-201" value="" style="endArrow=none;html=1;rounded=0;exitX=0.75;exitY=1;exitDx=0;exitDy=0;" edge="1" parent="1">
          <mxGeometry relative="1" as="geometry">
            <mxPoint x="122" y="691" as="sourcePoint" />
            <mxPoint x="138" y="771" as="targetPoint" />
            <Array as="points">
              <mxPoint x="122" y="771" />
            </Array>
          </mxGeometry>
        </mxCell>
        <mxCell id="s3zXmxbvex1dd2ZhF0mQ-202" value="" style="ellipse;whiteSpace=wrap;html=1;fillColor=#696969;" vertex="1" parent="1">
          <mxGeometry x="138" y="761" width="20" height="20" as="geometry" />
        </mxCell>
        <mxCell id="s3zXmxbvex1dd2ZhF0mQ-203" value="" style="endArrow=none;html=1;rounded=0;exitX=0.583;exitY=1;exitDx=0;exitDy=0;exitPerimeter=0;" edge="1" parent="1">
          <mxGeometry relative="1" as="geometry">
            <mxPoint x="102" y="691" as="sourcePoint" />
            <mxPoint x="118" y="798" as="targetPoint" />
            <Array as="points">
              <mxPoint x="102" y="798" />
            </Array>
          </mxGeometry>
        </mxCell>
        <mxCell id="s3zXmxbvex1dd2ZhF0mQ-204" value="" style="ellipse;whiteSpace=wrap;html=1;fillColor=#696969;" vertex="1" parent="1">
          <mxGeometry x="118" y="788" width="20" height="20" as="geometry" />
        </mxCell>
        <mxCell id="s3zXmxbvex1dd2ZhF0mQ-205" value="" style="endArrow=none;html=1;rounded=0;exitX=0.423;exitY=0.987;exitDx=0;exitDy=0;exitPerimeter=0;" edge="1" parent="1">
          <mxGeometry relative="1" as="geometry">
            <mxPoint x="83" y="690" as="sourcePoint" />
            <mxPoint x="98" y="828" as="targetPoint" />
            <Array as="points">
              <mxPoint x="82" y="828" />
            </Array>
          </mxGeometry>
        </mxCell>
        <mxCell id="s3zXmxbvex1dd2ZhF0mQ-206" value="" style="ellipse;whiteSpace=wrap;html=1;" vertex="1" parent="1">
          <mxGeometry x="98" y="818" width="20" height="20" as="geometry" />
        </mxCell>
        <mxCell id="s3zXmxbvex1dd2ZhF0mQ-207" value="" style="endArrow=none;html=1;rounded=0;exitX=0.25;exitY=1;exitDx=0;exitDy=0;" edge="1" parent="1">
          <mxGeometry relative="1" as="geometry">
            <mxPoint x="62" y="691" as="sourcePoint" />
            <mxPoint x="78" y="859" as="targetPoint" />
            <Array as="points">
              <mxPoint x="62" y="859" />
            </Array>
          </mxGeometry>
        </mxCell>
        <mxCell id="s3zXmxbvex1dd2ZhF0mQ-208" value="" style="ellipse;whiteSpace=wrap;html=1;" vertex="1" parent="1">
          <mxGeometry x="78" y="850" width="20" height="20" as="geometry" />
        </mxCell>
        <mxCell id="s3zXmxbvex1dd2ZhF0mQ-209" value="idItensReceita" style="text;html=1;align=left;verticalAlign=middle;whiteSpace=wrap;rounded=0;" vertex="1" parent="1">
          <mxGeometry x="180" y="726" width="60" height="30" as="geometry" />
        </mxCell>
        <mxCell id="s3zXmxbvex1dd2ZhF0mQ-210" value="idReceita" style="text;html=1;align=left;verticalAlign=middle;whiteSpace=wrap;rounded=0;" vertex="1" parent="1">
          <mxGeometry x="160" y="756" width="60" height="30" as="geometry" />
        </mxCell>
        <mxCell id="s3zXmxbvex1dd2ZhF0mQ-211" value="idMedicamento" style="text;html=1;align=left;verticalAlign=middle;whiteSpace=wrap;rounded=0;" vertex="1" parent="1">
          <mxGeometry x="140" y="784" width="60" height="30" as="geometry" />
        </mxCell>
        <mxCell id="s3zXmxbvex1dd2ZhF0mQ-212" value="quantidade" style="text;html=1;align=left;verticalAlign=middle;whiteSpace=wrap;rounded=0;" vertex="1" parent="1">
          <mxGeometry x="119" y="813" width="60" height="30" as="geometry" />
        </mxCell>
        <mxCell id="s3zXmxbvex1dd2ZhF0mQ-213" value="dosagem" style="text;html=1;align=left;verticalAlign=middle;whiteSpace=wrap;rounded=0;" vertex="1" parent="1">
          <mxGeometry x="99" y="845" width="60" height="30" as="geometry" />
        </mxCell>
        <mxCell id="s3zXmxbvex1dd2ZhF0mQ-214" value="" style="endArrow=none;html=1;rounded=0;exitX=0.75;exitY=1;exitDx=0;exitDy=0;" edge="1" parent="1">
          <mxGeometry relative="1" as="geometry">
            <mxPoint x="495.0000000000001" y="691" as="sourcePoint" />
            <mxPoint x="515" y="741" as="targetPoint" />
            <Array as="points">
              <mxPoint x="495" y="741" />
            </Array>
          </mxGeometry>
        </mxCell>
        <mxCell id="s3zXmxbvex1dd2ZhF0mQ-215" value="" style="ellipse;whiteSpace=wrap;html=1;fillColor=#696969;" vertex="1" parent="1">
          <mxGeometry x="515" y="731" width="20" height="20" as="geometry" />
        </mxCell>
        <mxCell id="s3zXmxbvex1dd2ZhF0mQ-216" value="" style="endArrow=none;html=1;rounded=0;exitX=0.75;exitY=1;exitDx=0;exitDy=0;" edge="1" parent="1">
          <mxGeometry relative="1" as="geometry">
            <mxPoint x="479" y="691" as="sourcePoint" />
            <mxPoint x="495" y="771" as="targetPoint" />
            <Array as="points">
              <mxPoint x="479" y="771" />
            </Array>
          </mxGeometry>
        </mxCell>
        <mxCell id="s3zXmxbvex1dd2ZhF0mQ-217" value="" style="ellipse;whiteSpace=wrap;html=1;fillColor=#FFFFFF;" vertex="1" parent="1">
          <mxGeometry x="495" y="761" width="20" height="20" as="geometry" />
        </mxCell>
        <mxCell id="s3zXmxbvex1dd2ZhF0mQ-218" value="" style="endArrow=none;html=1;rounded=0;exitX=0.583;exitY=1;exitDx=0;exitDy=0;exitPerimeter=0;" edge="1" parent="1">
          <mxGeometry relative="1" as="geometry">
            <mxPoint x="459" y="691" as="sourcePoint" />
            <mxPoint x="475" y="798" as="targetPoint" />
            <Array as="points">
              <mxPoint x="459" y="798" />
            </Array>
          </mxGeometry>
        </mxCell>
        <mxCell id="s3zXmxbvex1dd2ZhF0mQ-219" value="" style="ellipse;whiteSpace=wrap;html=1;fillColor=#FFFFFF;" vertex="1" parent="1">
          <mxGeometry x="475" y="788" width="20" height="20" as="geometry" />
        </mxCell>
        <mxCell id="s3zXmxbvex1dd2ZhF0mQ-220" value="" style="endArrow=none;html=1;rounded=0;exitX=0.423;exitY=0.987;exitDx=0;exitDy=0;exitPerimeter=0;" edge="1" parent="1">
          <mxGeometry relative="1" as="geometry">
            <mxPoint x="440" y="690" as="sourcePoint" />
            <mxPoint x="455" y="828" as="targetPoint" />
            <Array as="points">
              <mxPoint x="439" y="828" />
            </Array>
          </mxGeometry>
        </mxCell>
        <mxCell id="s3zXmxbvex1dd2ZhF0mQ-221" value="" style="ellipse;whiteSpace=wrap;html=1;" vertex="1" parent="1">
          <mxGeometry x="455" y="818" width="20" height="20" as="geometry" />
        </mxCell>
        <mxCell id="s3zXmxbvex1dd2ZhF0mQ-224" value="idMedicamento" style="text;html=1;align=left;verticalAlign=middle;whiteSpace=wrap;rounded=0;" vertex="1" parent="1">
          <mxGeometry x="537" y="726" width="60" height="30" as="geometry" />
        </mxCell>
        <mxCell id="s3zXmxbvex1dd2ZhF0mQ-225" value="nome" style="text;html=1;align=left;verticalAlign=middle;whiteSpace=wrap;rounded=0;" vertex="1" parent="1">
          <mxGeometry x="517" y="756" width="60" height="30" as="geometry" />
        </mxCell>
        <mxCell id="s3zXmxbvex1dd2ZhF0mQ-226" value="descricao" style="text;html=1;align=left;verticalAlign=middle;whiteSpace=wrap;rounded=0;" vertex="1" parent="1">
          <mxGeometry x="497" y="784" width="60" height="30" as="geometry" />
        </mxCell>
        <mxCell id="s3zXmxbvex1dd2ZhF0mQ-227" value="preco" style="text;html=1;align=left;verticalAlign=middle;whiteSpace=wrap;rounded=0;" vertex="1" parent="1">
          <mxGeometry x="476" y="813" width="60" height="30" as="geometry" />
        </mxCell>
        <mxCell id="s3zXmxbvex1dd2ZhF0mQ-229" value="(1,n)" style="text;html=1;align=center;verticalAlign=middle;whiteSpace=wrap;rounded=0;fillColor=default;" vertex="1" parent="1">
          <mxGeometry x="648" y="411" width="41.5" height="16" as="geometry" />
        </mxCell>
        <mxCell id="s3zXmxbvex1dd2ZhF0mQ-230" value="(1,n)" style="text;html=1;align=center;verticalAlign=middle;whiteSpace=wrap;rounded=0;fillColor=default;" vertex="1" parent="1">
          <mxGeometry x="502.25" y="411" width="41.5" height="16" as="geometry" />
        </mxCell>
        <mxCell id="s3zXmxbvex1dd2ZhF0mQ-231" value="(1,n)" style="text;html=1;align=center;verticalAlign=middle;whiteSpace=wrap;rounded=0;fillColor=default;" vertex="1" parent="1">
          <mxGeometry x="337.5" y="411" width="41.5" height="16" as="geometry" />
        </mxCell>
        <mxCell id="s3zXmxbvex1dd2ZhF0mQ-232" value="(1,n)" style="text;html=1;align=center;verticalAlign=middle;whiteSpace=wrap;rounded=0;fillColor=default;" vertex="1" parent="1">
          <mxGeometry x="161.5" y="411" width="41.5" height="16" as="geometry" />
        </mxCell>
        <mxCell id="s3zXmxbvex1dd2ZhF0mQ-234" value="(1,n)" style="text;html=1;align=center;verticalAlign=middle;whiteSpace=wrap;rounded=0;fillColor=default;" vertex="1" parent="1">
          <mxGeometry x="79.25" y="476" width="41.5" height="16" as="geometry" />
        </mxCell>
        <mxCell id="s3zXmxbvex1dd2ZhF0mQ-238" value="(1,n)" style="text;html=1;align=center;verticalAlign=middle;whiteSpace=wrap;rounded=0;fillColor=default;" vertex="1" parent="1">
          <mxGeometry x="79.25" y="601" width="41.5" height="16" as="geometry" />
        </mxCell>
        <mxCell id="s3zXmxbvex1dd2ZhF0mQ-239" value="(1,n)" style="text;html=1;align=center;verticalAlign=middle;whiteSpace=wrap;rounded=0;fillColor=default;" vertex="1" parent="1">
          <mxGeometry x="178" y="641" width="41.5" height="16" as="geometry" />
        </mxCell>
        <mxCell id="s3zXmxbvex1dd2ZhF0mQ-240" value="(1,n)" style="text;html=1;align=center;verticalAlign=middle;whiteSpace=wrap;rounded=0;fillColor=default;" vertex="1" parent="1">
          <mxGeometry x="336.5" y="640" width="41.5" height="16" as="geometry" />
        </mxCell>
        <mxCell id="s3zXmxbvex1dd2ZhF0mQ-250" value="VETERINÁRIO" style="shape=table;startSize=30;container=1;collapsible=1;childLayout=tableLayout;fixedRows=1;rowLines=0;fontStyle=1;align=center;resizeLast=1;html=1;whiteSpace=wrap;" vertex="1" parent="1">
          <mxGeometry x="750" y="939" width="195" height="180" as="geometry" />
        </mxCell>
        <mxCell id="s3zXmxbvex1dd2ZhF0mQ-251" value="" style="shape=tableRow;horizontal=0;startSize=0;swimlaneHead=0;swimlaneBody=0;fillColor=none;collapsible=0;dropTarget=0;points=[[0,0.5],[1,0.5]];portConstraint=eastwest;top=0;left=0;right=0;bottom=0;html=1;" vertex="1" parent="s3zXmxbvex1dd2ZhF0mQ-250">
          <mxGeometry y="30" width="195" height="30" as="geometry" />
        </mxCell>
        <mxCell id="s3zXmxbvex1dd2ZhF0mQ-252" value="PK" style="shape=partialRectangle;connectable=0;fillColor=none;top=0;left=0;bottom=0;right=0;fontStyle=1;overflow=hidden;html=1;whiteSpace=wrap;strokeColor=default;" vertex="1" parent="s3zXmxbvex1dd2ZhF0mQ-251">
          <mxGeometry width="60" height="30" as="geometry">
            <mxRectangle width="60" height="30" as="alternateBounds" />
          </mxGeometry>
        </mxCell>
        <mxCell id="s3zXmxbvex1dd2ZhF0mQ-253" value="idVeterinario" style="shape=partialRectangle;connectable=0;fillColor=none;top=0;left=0;bottom=0;right=0;align=left;spacingLeft=6;fontStyle=5;overflow=hidden;html=1;whiteSpace=wrap;strokeColor=default;" vertex="1" parent="s3zXmxbvex1dd2ZhF0mQ-251">
          <mxGeometry x="60" width="135" height="30" as="geometry">
            <mxRectangle width="135" height="30" as="alternateBounds" />
          </mxGeometry>
        </mxCell>
        <mxCell id="s3zXmxbvex1dd2ZhF0mQ-260" value="" style="shape=tableRow;horizontal=0;startSize=0;swimlaneHead=0;swimlaneBody=0;fillColor=none;collapsible=0;dropTarget=0;points=[[0,0.5],[1,0.5]];portConstraint=eastwest;top=0;left=0;right=0;bottom=0;html=1;" vertex="1" parent="s3zXmxbvex1dd2ZhF0mQ-250">
          <mxGeometry y="60" width="195" height="30" as="geometry" />
        </mxCell>
        <mxCell id="s3zXmxbvex1dd2ZhF0mQ-261" value="" style="shape=partialRectangle;connectable=0;fillColor=none;top=0;left=0;bottom=0;right=0;editable=1;overflow=hidden;html=1;whiteSpace=wrap;" vertex="1" parent="s3zXmxbvex1dd2ZhF0mQ-260">
          <mxGeometry width="60" height="30" as="geometry">
            <mxRectangle width="60" height="30" as="alternateBounds" />
          </mxGeometry>
        </mxCell>
        <mxCell id="s3zXmxbvex1dd2ZhF0mQ-262" value="nome" style="shape=partialRectangle;connectable=0;fillColor=none;top=0;left=0;bottom=0;right=0;align=left;spacingLeft=6;overflow=hidden;html=1;whiteSpace=wrap;" vertex="1" parent="s3zXmxbvex1dd2ZhF0mQ-260">
          <mxGeometry x="60" width="135" height="30" as="geometry">
            <mxRectangle width="135" height="30" as="alternateBounds" />
          </mxGeometry>
        </mxCell>
        <mxCell id="s3zXmxbvex1dd2ZhF0mQ-263" value="" style="shape=tableRow;horizontal=0;startSize=0;swimlaneHead=0;swimlaneBody=0;fillColor=none;collapsible=0;dropTarget=0;points=[[0,0.5],[1,0.5]];portConstraint=eastwest;top=0;left=0;right=0;bottom=0;html=1;" vertex="1" parent="s3zXmxbvex1dd2ZhF0mQ-250">
          <mxGeometry y="90" width="195" height="30" as="geometry" />
        </mxCell>
        <mxCell id="s3zXmxbvex1dd2ZhF0mQ-264" value="" style="shape=partialRectangle;connectable=0;fillColor=none;top=0;left=0;bottom=0;right=0;editable=1;overflow=hidden;html=1;whiteSpace=wrap;" vertex="1" parent="s3zXmxbvex1dd2ZhF0mQ-263">
          <mxGeometry width="60" height="30" as="geometry">
            <mxRectangle width="60" height="30" as="alternateBounds" />
          </mxGeometry>
        </mxCell>
        <mxCell id="s3zXmxbvex1dd2ZhF0mQ-265" value="especialidade" style="shape=partialRectangle;connectable=0;fillColor=none;top=0;left=0;bottom=0;right=0;align=left;spacingLeft=6;overflow=hidden;html=1;whiteSpace=wrap;" vertex="1" parent="s3zXmxbvex1dd2ZhF0mQ-263">
          <mxGeometry x="60" width="135" height="30" as="geometry">
            <mxRectangle width="135" height="30" as="alternateBounds" />
          </mxGeometry>
        </mxCell>
        <mxCell id="s3zXmxbvex1dd2ZhF0mQ-267" style="shape=tableRow;horizontal=0;startSize=0;swimlaneHead=0;swimlaneBody=0;fillColor=none;collapsible=0;dropTarget=0;points=[[0,0.5],[1,0.5]];portConstraint=eastwest;top=0;left=0;right=0;bottom=0;html=1;" vertex="1" parent="s3zXmxbvex1dd2ZhF0mQ-250">
          <mxGeometry y="120" width="195" height="30" as="geometry" />
        </mxCell>
        <mxCell id="s3zXmxbvex1dd2ZhF0mQ-268" style="shape=partialRectangle;connectable=0;fillColor=none;top=0;left=0;bottom=0;right=0;editable=1;overflow=hidden;html=1;whiteSpace=wrap;" vertex="1" parent="s3zXmxbvex1dd2ZhF0mQ-267">
          <mxGeometry width="60" height="30" as="geometry">
            <mxRectangle width="60" height="30" as="alternateBounds" />
          </mxGeometry>
        </mxCell>
        <mxCell id="s3zXmxbvex1dd2ZhF0mQ-269" value="telefone" style="shape=partialRectangle;connectable=0;fillColor=none;top=0;left=0;bottom=0;right=0;align=left;spacingLeft=6;overflow=hidden;html=1;whiteSpace=wrap;" vertex="1" parent="s3zXmxbvex1dd2ZhF0mQ-267">
          <mxGeometry x="60" width="135" height="30" as="geometry">
            <mxRectangle width="135" height="30" as="alternateBounds" />
          </mxGeometry>
        </mxCell>
        <mxCell id="s3zXmxbvex1dd2ZhF0mQ-270" style="shape=tableRow;horizontal=0;startSize=0;swimlaneHead=0;swimlaneBody=0;fillColor=none;collapsible=0;dropTarget=0;points=[[0,0.5],[1,0.5]];portConstraint=eastwest;top=0;left=0;right=0;bottom=0;html=1;" vertex="1" parent="s3zXmxbvex1dd2ZhF0mQ-250">
          <mxGeometry y="150" width="195" height="30" as="geometry" />
        </mxCell>
        <mxCell id="s3zXmxbvex1dd2ZhF0mQ-271" style="shape=partialRectangle;connectable=0;fillColor=none;top=0;left=0;bottom=0;right=0;editable=1;overflow=hidden;html=1;whiteSpace=wrap;" vertex="1" parent="s3zXmxbvex1dd2ZhF0mQ-270">
          <mxGeometry width="60" height="30" as="geometry">
            <mxRectangle width="60" height="30" as="alternateBounds" />
          </mxGeometry>
        </mxCell>
        <mxCell id="s3zXmxbvex1dd2ZhF0mQ-272" value="email" style="shape=partialRectangle;connectable=0;fillColor=none;top=0;left=0;bottom=0;right=0;align=left;spacingLeft=6;overflow=hidden;html=1;whiteSpace=wrap;" vertex="1" parent="s3zXmxbvex1dd2ZhF0mQ-270">
          <mxGeometry x="60" width="135" height="30" as="geometry">
            <mxRectangle width="135" height="30" as="alternateBounds" />
          </mxGeometry>
        </mxCell>
        <mxCell id="s3zXmxbvex1dd2ZhF0mQ-266" value="" style="line;strokeWidth=1;rotatable=0;dashed=0;labelPosition=right;align=left;verticalAlign=middle;spacingTop=0;spacingLeft=6;points=[];portConstraint=eastwest;" vertex="1" parent="1">
          <mxGeometry x="751" y="993" width="194" height="10" as="geometry" />
        </mxCell>
        <mxCell id="s3zXmxbvex1dd2ZhF0mQ-289" value="RECEITA" style="shape=table;startSize=30;container=1;collapsible=1;childLayout=tableLayout;fixedRows=1;rowLines=0;fontStyle=1;align=center;resizeLast=1;html=1;whiteSpace=wrap;" vertex="1" parent="1">
          <mxGeometry x="984" y="939" width="195" height="120" as="geometry" />
        </mxCell>
        <mxCell id="s3zXmxbvex1dd2ZhF0mQ-290" value="" style="shape=tableRow;horizontal=0;startSize=0;swimlaneHead=0;swimlaneBody=0;fillColor=none;collapsible=0;dropTarget=0;points=[[0,0.5],[1,0.5]];portConstraint=eastwest;top=0;left=0;right=0;bottom=0;html=1;" vertex="1" parent="s3zXmxbvex1dd2ZhF0mQ-289">
          <mxGeometry y="30" width="195" height="30" as="geometry" />
        </mxCell>
        <mxCell id="s3zXmxbvex1dd2ZhF0mQ-291" value="PK" style="shape=partialRectangle;connectable=0;fillColor=none;top=0;left=0;bottom=0;right=0;fontStyle=1;overflow=hidden;html=1;whiteSpace=wrap;strokeColor=default;" vertex="1" parent="s3zXmxbvex1dd2ZhF0mQ-290">
          <mxGeometry width="60" height="30" as="geometry">
            <mxRectangle width="60" height="30" as="alternateBounds" />
          </mxGeometry>
        </mxCell>
        <mxCell id="s3zXmxbvex1dd2ZhF0mQ-292" value="idReceita" style="shape=partialRectangle;connectable=0;fillColor=none;top=0;left=0;bottom=0;right=0;align=left;spacingLeft=6;fontStyle=5;overflow=hidden;html=1;whiteSpace=wrap;strokeColor=default;" vertex="1" parent="s3zXmxbvex1dd2ZhF0mQ-290">
          <mxGeometry x="60" width="135" height="30" as="geometry">
            <mxRectangle width="135" height="30" as="alternateBounds" />
          </mxGeometry>
        </mxCell>
        <mxCell id="s3zXmxbvex1dd2ZhF0mQ-309" style="shape=tableRow;horizontal=0;startSize=0;swimlaneHead=0;swimlaneBody=0;fillColor=none;collapsible=0;dropTarget=0;points=[[0,0.5],[1,0.5]];portConstraint=eastwest;top=0;left=0;right=0;bottom=0;html=1;" vertex="1" parent="s3zXmxbvex1dd2ZhF0mQ-289">
          <mxGeometry y="60" width="195" height="30" as="geometry" />
        </mxCell>
        <mxCell id="s3zXmxbvex1dd2ZhF0mQ-310" value="FK1" style="shape=partialRectangle;connectable=0;fillColor=none;top=0;left=0;bottom=0;right=0;fontStyle=1;overflow=hidden;html=1;whiteSpace=wrap;strokeColor=default;" vertex="1" parent="s3zXmxbvex1dd2ZhF0mQ-309">
          <mxGeometry width="60" height="30" as="geometry">
            <mxRectangle width="60" height="30" as="alternateBounds" />
          </mxGeometry>
        </mxCell>
        <mxCell id="s3zXmxbvex1dd2ZhF0mQ-311" value="idAgendamento" style="shape=partialRectangle;connectable=0;fillColor=none;top=0;left=0;bottom=0;right=0;align=left;spacingLeft=6;fontStyle=5;overflow=hidden;html=1;whiteSpace=wrap;strokeColor=default;" vertex="1" parent="s3zXmxbvex1dd2ZhF0mQ-309">
          <mxGeometry x="60" width="135" height="30" as="geometry">
            <mxRectangle width="135" height="30" as="alternateBounds" />
          </mxGeometry>
        </mxCell>
        <mxCell id="s3zXmxbvex1dd2ZhF0mQ-293" value="" style="shape=tableRow;horizontal=0;startSize=0;swimlaneHead=0;swimlaneBody=0;fillColor=none;collapsible=0;dropTarget=0;points=[[0,0.5],[1,0.5]];portConstraint=eastwest;top=0;left=0;right=0;bottom=0;html=1;" vertex="1" parent="s3zXmxbvex1dd2ZhF0mQ-289">
          <mxGeometry y="90" width="195" height="30" as="geometry" />
        </mxCell>
        <mxCell id="s3zXmxbvex1dd2ZhF0mQ-294" value="" style="shape=partialRectangle;connectable=0;fillColor=none;top=0;left=0;bottom=0;right=0;editable=1;overflow=hidden;html=1;whiteSpace=wrap;" vertex="1" parent="s3zXmxbvex1dd2ZhF0mQ-293">
          <mxGeometry width="60" height="30" as="geometry">
            <mxRectangle width="60" height="30" as="alternateBounds" />
          </mxGeometry>
        </mxCell>
        <mxCell id="s3zXmxbvex1dd2ZhF0mQ-295" value="dataEmissao" style="shape=partialRectangle;connectable=0;fillColor=none;top=0;left=0;bottom=0;right=0;align=left;spacingLeft=6;overflow=hidden;html=1;whiteSpace=wrap;" vertex="1" parent="s3zXmxbvex1dd2ZhF0mQ-293">
          <mxGeometry x="60" width="135" height="30" as="geometry">
            <mxRectangle width="135" height="30" as="alternateBounds" />
          </mxGeometry>
        </mxCell>
        <mxCell id="s3zXmxbvex1dd2ZhF0mQ-305" value="" style="line;strokeWidth=1;rotatable=0;dashed=0;labelPosition=right;align=left;verticalAlign=middle;spacingTop=0;spacingLeft=6;points=[];portConstraint=eastwest;" vertex="1" parent="1">
          <mxGeometry x="985" y="1024" width="194" height="10" as="geometry" />
        </mxCell>
        <mxCell id="s3zXmxbvex1dd2ZhF0mQ-322" value="ITEM DE RECEITA" style="shape=table;startSize=30;container=1;collapsible=1;childLayout=tableLayout;fixedRows=1;rowLines=0;fontStyle=1;align=center;resizeLast=1;html=1;whiteSpace=wrap;" vertex="1" parent="1">
          <mxGeometry x="985" y="1160" width="195" height="180" as="geometry" />
        </mxCell>
        <mxCell id="s3zXmxbvex1dd2ZhF0mQ-323" value="" style="shape=tableRow;horizontal=0;startSize=0;swimlaneHead=0;swimlaneBody=0;fillColor=none;collapsible=0;dropTarget=0;points=[[0,0.5],[1,0.5]];portConstraint=eastwest;top=0;left=0;right=0;bottom=0;html=1;" vertex="1" parent="s3zXmxbvex1dd2ZhF0mQ-322">
          <mxGeometry y="30" width="195" height="30" as="geometry" />
        </mxCell>
        <mxCell id="s3zXmxbvex1dd2ZhF0mQ-324" value="PK" style="shape=partialRectangle;connectable=0;fillColor=none;top=0;left=0;bottom=0;right=0;fontStyle=1;overflow=hidden;html=1;whiteSpace=wrap;strokeColor=default;" vertex="1" parent="s3zXmxbvex1dd2ZhF0mQ-323">
          <mxGeometry width="60" height="30" as="geometry">
            <mxRectangle width="60" height="30" as="alternateBounds" />
          </mxGeometry>
        </mxCell>
        <mxCell id="s3zXmxbvex1dd2ZhF0mQ-325" value="idItensReceita" style="shape=partialRectangle;connectable=0;fillColor=none;top=0;left=0;bottom=0;right=0;align=left;spacingLeft=6;fontStyle=5;overflow=hidden;html=1;whiteSpace=wrap;strokeColor=default;" vertex="1" parent="s3zXmxbvex1dd2ZhF0mQ-323">
          <mxGeometry x="60" width="135" height="30" as="geometry">
            <mxRectangle width="135" height="30" as="alternateBounds" />
          </mxGeometry>
        </mxCell>
        <mxCell id="s3zXmxbvex1dd2ZhF0mQ-326" style="shape=tableRow;horizontal=0;startSize=0;swimlaneHead=0;swimlaneBody=0;fillColor=none;collapsible=0;dropTarget=0;points=[[0,0.5],[1,0.5]];portConstraint=eastwest;top=0;left=0;right=0;bottom=0;html=1;" vertex="1" parent="s3zXmxbvex1dd2ZhF0mQ-322">
          <mxGeometry y="60" width="195" height="30" as="geometry" />
        </mxCell>
        <mxCell id="s3zXmxbvex1dd2ZhF0mQ-327" value="FK1" style="shape=partialRectangle;connectable=0;fillColor=none;top=0;left=0;bottom=0;right=0;fontStyle=1;overflow=hidden;html=1;whiteSpace=wrap;strokeColor=default;" vertex="1" parent="s3zXmxbvex1dd2ZhF0mQ-326">
          <mxGeometry width="60" height="30" as="geometry">
            <mxRectangle width="60" height="30" as="alternateBounds" />
          </mxGeometry>
        </mxCell>
        <mxCell id="s3zXmxbvex1dd2ZhF0mQ-328" value="idReceita" style="shape=partialRectangle;connectable=0;fillColor=none;top=0;left=0;bottom=0;right=0;align=left;spacingLeft=6;fontStyle=5;overflow=hidden;html=1;whiteSpace=wrap;strokeColor=default;" vertex="1" parent="s3zXmxbvex1dd2ZhF0mQ-326">
          <mxGeometry x="60" width="135" height="30" as="geometry">
            <mxRectangle width="135" height="30" as="alternateBounds" />
          </mxGeometry>
        </mxCell>
        <mxCell id="s3zXmxbvex1dd2ZhF0mQ-333" style="shape=tableRow;horizontal=0;startSize=0;swimlaneHead=0;swimlaneBody=0;fillColor=none;collapsible=0;dropTarget=0;points=[[0,0.5],[1,0.5]];portConstraint=eastwest;top=0;left=0;right=0;bottom=0;html=1;" vertex="1" parent="s3zXmxbvex1dd2ZhF0mQ-322">
          <mxGeometry y="90" width="195" height="30" as="geometry" />
        </mxCell>
        <mxCell id="s3zXmxbvex1dd2ZhF0mQ-334" value="FK2" style="shape=partialRectangle;connectable=0;fillColor=none;top=0;left=0;bottom=0;right=0;fontStyle=1;overflow=hidden;html=1;whiteSpace=wrap;strokeColor=default;" vertex="1" parent="s3zXmxbvex1dd2ZhF0mQ-333">
          <mxGeometry width="60" height="30" as="geometry">
            <mxRectangle width="60" height="30" as="alternateBounds" />
          </mxGeometry>
        </mxCell>
        <mxCell id="s3zXmxbvex1dd2ZhF0mQ-335" value="idMedicamento" style="shape=partialRectangle;connectable=0;fillColor=none;top=0;left=0;bottom=0;right=0;align=left;spacingLeft=6;fontStyle=5;overflow=hidden;html=1;whiteSpace=wrap;strokeColor=default;" vertex="1" parent="s3zXmxbvex1dd2ZhF0mQ-333">
          <mxGeometry x="60" width="135" height="30" as="geometry">
            <mxRectangle width="135" height="30" as="alternateBounds" />
          </mxGeometry>
        </mxCell>
        <mxCell id="s3zXmxbvex1dd2ZhF0mQ-329" value="" style="shape=tableRow;horizontal=0;startSize=0;swimlaneHead=0;swimlaneBody=0;fillColor=none;collapsible=0;dropTarget=0;points=[[0,0.5],[1,0.5]];portConstraint=eastwest;top=0;left=0;right=0;bottom=0;html=1;" vertex="1" parent="s3zXmxbvex1dd2ZhF0mQ-322">
          <mxGeometry y="120" width="195" height="30" as="geometry" />
        </mxCell>
        <mxCell id="s3zXmxbvex1dd2ZhF0mQ-330" value="" style="shape=partialRectangle;connectable=0;fillColor=none;top=0;left=0;bottom=0;right=0;editable=1;overflow=hidden;html=1;whiteSpace=wrap;" vertex="1" parent="s3zXmxbvex1dd2ZhF0mQ-329">
          <mxGeometry width="60" height="30" as="geometry">
            <mxRectangle width="60" height="30" as="alternateBounds" />
          </mxGeometry>
        </mxCell>
        <mxCell id="s3zXmxbvex1dd2ZhF0mQ-331" value="quantidade" style="shape=partialRectangle;connectable=0;fillColor=none;top=0;left=0;bottom=0;right=0;align=left;spacingLeft=6;overflow=hidden;html=1;whiteSpace=wrap;" vertex="1" parent="s3zXmxbvex1dd2ZhF0mQ-329">
          <mxGeometry x="60" width="135" height="30" as="geometry">
            <mxRectangle width="135" height="30" as="alternateBounds" />
          </mxGeometry>
        </mxCell>
        <mxCell id="s3zXmxbvex1dd2ZhF0mQ-336" style="shape=tableRow;horizontal=0;startSize=0;swimlaneHead=0;swimlaneBody=0;fillColor=none;collapsible=0;dropTarget=0;points=[[0,0.5],[1,0.5]];portConstraint=eastwest;top=0;left=0;right=0;bottom=0;html=1;" vertex="1" parent="s3zXmxbvex1dd2ZhF0mQ-322">
          <mxGeometry y="150" width="195" height="30" as="geometry" />
        </mxCell>
        <mxCell id="s3zXmxbvex1dd2ZhF0mQ-337" style="shape=partialRectangle;connectable=0;fillColor=none;top=0;left=0;bottom=0;right=0;editable=1;overflow=hidden;html=1;whiteSpace=wrap;" vertex="1" parent="s3zXmxbvex1dd2ZhF0mQ-336">
          <mxGeometry width="60" height="30" as="geometry">
            <mxRectangle width="60" height="30" as="alternateBounds" />
          </mxGeometry>
        </mxCell>
        <mxCell id="s3zXmxbvex1dd2ZhF0mQ-338" value="dosagem" style="shape=partialRectangle;connectable=0;fillColor=none;top=0;left=0;bottom=0;right=0;align=left;spacingLeft=6;overflow=hidden;html=1;whiteSpace=wrap;" vertex="1" parent="s3zXmxbvex1dd2ZhF0mQ-336">
          <mxGeometry x="60" width="135" height="30" as="geometry">
            <mxRectangle width="135" height="30" as="alternateBounds" />
          </mxGeometry>
        </mxCell>
        <mxCell id="s3zXmxbvex1dd2ZhF0mQ-332" value="" style="line;strokeWidth=1;rotatable=0;dashed=0;labelPosition=right;align=left;verticalAlign=middle;spacingTop=0;spacingLeft=6;points=[];portConstraint=eastwest;" vertex="1" parent="1">
          <mxGeometry x="986" y="1275" width="194" height="10" as="geometry" />
        </mxCell>
        <mxCell id="s3zXmxbvex1dd2ZhF0mQ-342" value="MEDICAMENTO" style="shape=table;startSize=30;container=1;collapsible=1;childLayout=tableLayout;fixedRows=1;rowLines=0;fontStyle=1;align=center;resizeLast=1;html=1;whiteSpace=wrap;" vertex="1" parent="1">
          <mxGeometry x="750.24" y="1160" width="195" height="150" as="geometry" />
        </mxCell>
        <mxCell id="s3zXmxbvex1dd2ZhF0mQ-343" value="" style="shape=tableRow;horizontal=0;startSize=0;swimlaneHead=0;swimlaneBody=0;fillColor=none;collapsible=0;dropTarget=0;points=[[0,0.5],[1,0.5]];portConstraint=eastwest;top=0;left=0;right=0;bottom=0;html=1;" vertex="1" parent="s3zXmxbvex1dd2ZhF0mQ-342">
          <mxGeometry y="30" width="195" height="30" as="geometry" />
        </mxCell>
        <mxCell id="s3zXmxbvex1dd2ZhF0mQ-344" value="PK" style="shape=partialRectangle;connectable=0;fillColor=none;top=0;left=0;bottom=0;right=0;fontStyle=1;overflow=hidden;html=1;whiteSpace=wrap;strokeColor=default;" vertex="1" parent="s3zXmxbvex1dd2ZhF0mQ-343">
          <mxGeometry width="60" height="30" as="geometry">
            <mxRectangle width="60" height="30" as="alternateBounds" />
          </mxGeometry>
        </mxCell>
        <mxCell id="s3zXmxbvex1dd2ZhF0mQ-345" value="idMedicamento" style="shape=partialRectangle;connectable=0;fillColor=none;top=0;left=0;bottom=0;right=0;align=left;spacingLeft=6;fontStyle=5;overflow=hidden;html=1;whiteSpace=wrap;strokeColor=default;" vertex="1" parent="s3zXmxbvex1dd2ZhF0mQ-343">
          <mxGeometry x="60" width="135" height="30" as="geometry">
            <mxRectangle width="135" height="30" as="alternateBounds" />
          </mxGeometry>
        </mxCell>
        <mxCell id="s3zXmxbvex1dd2ZhF0mQ-352" value="" style="shape=tableRow;horizontal=0;startSize=0;swimlaneHead=0;swimlaneBody=0;fillColor=none;collapsible=0;dropTarget=0;points=[[0,0.5],[1,0.5]];portConstraint=eastwest;top=0;left=0;right=0;bottom=0;html=1;" vertex="1" parent="s3zXmxbvex1dd2ZhF0mQ-342">
          <mxGeometry y="60" width="195" height="30" as="geometry" />
        </mxCell>
        <mxCell id="s3zXmxbvex1dd2ZhF0mQ-353" value="" style="shape=partialRectangle;connectable=0;fillColor=none;top=0;left=0;bottom=0;right=0;editable=1;overflow=hidden;html=1;whiteSpace=wrap;" vertex="1" parent="s3zXmxbvex1dd2ZhF0mQ-352">
          <mxGeometry width="60" height="30" as="geometry">
            <mxRectangle width="60" height="30" as="alternateBounds" />
          </mxGeometry>
        </mxCell>
        <mxCell id="s3zXmxbvex1dd2ZhF0mQ-354" value="nome" style="shape=partialRectangle;connectable=0;fillColor=none;top=0;left=0;bottom=0;right=0;align=left;spacingLeft=6;overflow=hidden;html=1;whiteSpace=wrap;" vertex="1" parent="s3zXmxbvex1dd2ZhF0mQ-352">
          <mxGeometry x="60" width="135" height="30" as="geometry">
            <mxRectangle width="135" height="30" as="alternateBounds" />
          </mxGeometry>
        </mxCell>
        <mxCell id="s3zXmxbvex1dd2ZhF0mQ-355" style="shape=tableRow;horizontal=0;startSize=0;swimlaneHead=0;swimlaneBody=0;fillColor=none;collapsible=0;dropTarget=0;points=[[0,0.5],[1,0.5]];portConstraint=eastwest;top=0;left=0;right=0;bottom=0;html=1;" vertex="1" parent="s3zXmxbvex1dd2ZhF0mQ-342">
          <mxGeometry y="90" width="195" height="30" as="geometry" />
        </mxCell>
        <mxCell id="s3zXmxbvex1dd2ZhF0mQ-356" style="shape=partialRectangle;connectable=0;fillColor=none;top=0;left=0;bottom=0;right=0;editable=1;overflow=hidden;html=1;whiteSpace=wrap;" vertex="1" parent="s3zXmxbvex1dd2ZhF0mQ-355">
          <mxGeometry width="60" height="30" as="geometry">
            <mxRectangle width="60" height="30" as="alternateBounds" />
          </mxGeometry>
        </mxCell>
        <mxCell id="s3zXmxbvex1dd2ZhF0mQ-357" value="descricao" style="shape=partialRectangle;connectable=0;fillColor=none;top=0;left=0;bottom=0;right=0;align=left;spacingLeft=6;overflow=hidden;html=1;whiteSpace=wrap;" vertex="1" parent="s3zXmxbvex1dd2ZhF0mQ-355">
          <mxGeometry x="60" width="135" height="30" as="geometry">
            <mxRectangle width="135" height="30" as="alternateBounds" />
          </mxGeometry>
        </mxCell>
        <mxCell id="s3zXmxbvex1dd2ZhF0mQ-359" style="shape=tableRow;horizontal=0;startSize=0;swimlaneHead=0;swimlaneBody=0;fillColor=none;collapsible=0;dropTarget=0;points=[[0,0.5],[1,0.5]];portConstraint=eastwest;top=0;left=0;right=0;bottom=0;html=1;" vertex="1" parent="s3zXmxbvex1dd2ZhF0mQ-342">
          <mxGeometry y="120" width="195" height="30" as="geometry" />
        </mxCell>
        <mxCell id="s3zXmxbvex1dd2ZhF0mQ-360" style="shape=partialRectangle;connectable=0;fillColor=none;top=0;left=0;bottom=0;right=0;editable=1;overflow=hidden;html=1;whiteSpace=wrap;" vertex="1" parent="s3zXmxbvex1dd2ZhF0mQ-359">
          <mxGeometry width="60" height="30" as="geometry">
            <mxRectangle width="60" height="30" as="alternateBounds" />
          </mxGeometry>
        </mxCell>
        <mxCell id="s3zXmxbvex1dd2ZhF0mQ-361" value="preco" style="shape=partialRectangle;connectable=0;fillColor=none;top=0;left=0;bottom=0;right=0;align=left;spacingLeft=6;overflow=hidden;html=1;whiteSpace=wrap;" vertex="1" parent="s3zXmxbvex1dd2ZhF0mQ-359">
          <mxGeometry x="60" width="135" height="30" as="geometry">
            <mxRectangle width="135" height="30" as="alternateBounds" />
          </mxGeometry>
        </mxCell>
        <mxCell id="s3zXmxbvex1dd2ZhF0mQ-358" value="" style="line;strokeWidth=1;rotatable=0;dashed=0;labelPosition=right;align=left;verticalAlign=middle;spacingTop=0;spacingLeft=6;points=[];portConstraint=eastwest;" vertex="1" parent="1">
          <mxGeometry x="750" y="1213" width="194" height="10" as="geometry" />
        </mxCell>
        <mxCell id="s3zXmxbvex1dd2ZhF0mQ-362" value="" style="edgeStyle=entityRelationEdgeStyle;fontSize=12;html=1;endArrow=ERoneToMany;rounded=0;entryX=0;entryY=0.5;entryDx=0;entryDy=0;exitX=1;exitY=0.5;exitDx=0;exitDy=0;" edge="1" parent="1">
          <mxGeometry width="100" height="100" relative="1" as="geometry">
            <mxPoint x="472.25" y="1050" as="sourcePoint" />
            <mxPoint x="516.25" y="1050" as="targetPoint" />
          </mxGeometry>
        </mxCell>
        <mxCell id="s3zXmxbvex1dd2ZhF0mQ-364" value="" style="edgeStyle=entityRelationEdgeStyle;fontSize=12;html=1;endArrow=ERoneToMany;rounded=0;exitX=1;exitY=0.5;exitDx=0;exitDy=0;" edge="1" parent="1">
          <mxGeometry width="100" height="100" relative="1" as="geometry">
            <mxPoint x="710" y="1051" as="sourcePoint" />
            <mxPoint x="750" y="1051" as="targetPoint" />
          </mxGeometry>
        </mxCell>
        <mxCell id="s3zXmxbvex1dd2ZhF0mQ-365" value="" style="edgeStyle=entityRelationEdgeStyle;fontSize=12;html=1;endArrow=ERoneToMany;rounded=0;exitX=1;exitY=0.5;exitDx=0;exitDy=0;" edge="1" parent="1">
          <mxGeometry width="100" height="100" relative="1" as="geometry">
            <mxPoint x="944" y="1014.6199999999999" as="sourcePoint" />
            <mxPoint x="984" y="1014.6199999999999" as="targetPoint" />
          </mxGeometry>
        </mxCell>
        <mxCell id="s3zXmxbvex1dd2ZhF0mQ-368" value="" style="endArrow=none;html=1;rounded=0;exitX=0.594;exitY=1.006;exitDx=0;exitDy=0;exitPerimeter=0;" edge="1" parent="1">
          <mxGeometry relative="1" as="geometry">
            <mxPoint x="1099.83" y="1059.18" as="sourcePoint" />
            <mxPoint x="1100" y="1110" as="targetPoint" />
          </mxGeometry>
        </mxCell>
        <mxCell id="s3zXmxbvex1dd2ZhF0mQ-369" value="" style="edgeStyle=entityRelationEdgeStyle;fontSize=12;html=1;endArrow=ERoneToMany;rounded=0;" edge="1" parent="1" target="s3zXmxbvex1dd2ZhF0mQ-333">
          <mxGeometry width="100" height="100" relative="1" as="geometry">
            <mxPoint x="1100" y="1110" as="sourcePoint" />
            <mxPoint x="1250" y="1170" as="targetPoint" />
            <Array as="points">
              <mxPoint x="1250" y="1140" />
            </Array>
          </mxGeometry>
        </mxCell>
        <mxCell id="s3zXmxbvex1dd2ZhF0mQ-370" value="" style="edgeStyle=entityRelationEdgeStyle;fontSize=12;html=1;endArrow=ERoneToMany;rounded=0;entryX=1.006;entryY=0.271;entryDx=0;entryDy=0;entryPerimeter=0;exitX=-0.002;exitY=0.263;exitDx=0;exitDy=0;exitPerimeter=0;" edge="1" parent="1" source="s3zXmxbvex1dd2ZhF0mQ-333" target="s3zXmxbvex1dd2ZhF0mQ-355">
          <mxGeometry width="100" height="100" relative="1" as="geometry">
            <mxPoint x="1110" y="1120" as="sourcePoint" />
            <mxPoint x="1190" y="1275" as="targetPoint" />
            <Array as="points">
              <mxPoint x="1260" y="1150" />
            </Array>
          </mxGeometry>
        </mxCell>
      </root>
    </mxGraphModel>
  </diagram>
</mxfile>
